<svg xmlns="http://www.w3.org/2000/svg" width="575" height="371" viewBox="0 0 575 371">
    <g fill="none" fill-rule="evenodd">
        <g>
            <g transform="translate(-865 -3070) translate(865 3070)">
                <path fill="#FFF" fill-rule="nonzero" d="M463.546 317.692L503.125 317.692 503.125 146.371 463.546 120.741z"/>
                <path fill="#B0B3BF" fill-rule="nonzero" d="M503.352 317.919h-40.033V120.324l40.033 25.92V317.92zm-39.57-.454h39.116V146.49l-39.116-25.33v196.306z"/>
                <path fill="#FFF" fill-rule="nonzero" d="M423.949 120.741H463.528V317.692H423.949z"/>
                <path fill="#B0B3BF" fill-rule="nonzero" d="M463.755 317.928h-40.033V120.514h40.033v197.414zm-39.58-.454h39.126V120.968h-39.125v196.506z"/>
                <path fill="#FFF" fill-rule="nonzero" d="M423.994 146.679H463.564V147.679H423.994z"/>
                <path fill="#B0B3BF" fill-rule="nonzero" d="M463.791 147.523h-40.023v-1.07h40.023v1.07zm-39.57-.454h39.117v-.145H424.22v.145z"/>
                <path fill="#FFF" fill-rule="nonzero" d="M423.994 159.739H463.564V160.739H423.994z"/>
                <path fill="#B0B3BF" fill-rule="nonzero" d="M463.791 160.583h-40.023v-1.07h40.023v1.07zm-39.57-.454h39.117v-.163H424.22v.163z"/>
                <path fill="#FFF" fill-rule="nonzero" d="M423.994 172.79H463.564V173.79H423.994z"/>
                <path fill="#B0B3BF" fill-rule="nonzero" d="M463.791 173.643h-40.023v-1.08h40.023v1.08zm-39.57-.454h39.117v-.172H424.22v.172z"/>
                <path fill="#FFF" fill-rule="nonzero" d="M423.994 185.85H463.564V186.85H423.994z"/>
                <path fill="#B0B3BF" fill-rule="nonzero" d="M463.791 186.703h-40.023v-1.08h40.023v1.08zm-39.57-.454h39.117v-.172H424.22v.172z"/>
                <path fill="#FFF" fill-rule="nonzero" d="M423.994 198.91H463.564V199.91H423.994z"/>
                <path fill="#B0B3BF" fill-rule="nonzero" d="M463.791 199.763h-40.023v-1.08h40.023v1.08zm-39.57-.454h39.117v-.172H424.22v.172z"/>
                <path fill="#FFF" fill-rule="nonzero" d="M423.994 211.97H463.564V212.97H423.994z"/>
                <path fill="#B0B3BF" fill-rule="nonzero" d="M463.791 212.823h-40.023v-1.08h40.023v1.08zm-39.57-.454h39.117v-.145H424.22v.145z"/>
                <path fill="#FFF" fill-rule="nonzero" d="M423.994 225.03H463.564V226.03H423.994z"/>
                <path fill="#B0B3BF" fill-rule="nonzero" d="M463.791 225.882h-40.023v-1.079h40.023v1.08zm-39.57-.453h39.117v-.172H424.22v.172z"/>
                <path fill="#FFF" fill-rule="nonzero" d="M423.994 238.09H463.564V239.09H423.994z"/>
                <path fill="#B0B3BF" fill-rule="nonzero" d="M463.791 238.933h-40.023v-1.07h40.023v1.07zm-39.57-.453h39.117v-.163H424.22v.163z"/>
                <path fill="#FFF" fill-rule="nonzero" d="M423.994 251.15H463.564V252.15H423.994z"/>
                <path fill="#B0B3BF" fill-rule="nonzero" d="M463.791 251.993h-40.023v-1.07h40.023v1.07zm-39.57-.453h39.117v-.163H424.22v.163z"/>
                <path fill="#FFF" fill-rule="nonzero" d="M423.994 264.21H463.564V265.21H423.994z"/>
                <path fill="#B0B3BF" fill-rule="nonzero" d="M463.791 265.053h-40.023v-1.07h40.023v1.07zm-39.57-.453h39.117v-.163H424.22v.163z"/>
                <path fill="#FFF" fill-rule="nonzero" d="M423.994 277.27H463.564V278.27H423.994z"/>
                <path fill="#B0B3BF" fill-rule="nonzero" d="M463.791 278.113h-40.023v-1.07h40.023v1.07zm-39.57-.453h39.117v-.136H424.22v.136z"/>
                <path fill="#FFF" fill-rule="nonzero" d="M423.994 290.33H463.564V291.33H423.994z"/>
                <path fill="#B0B3BF" fill-rule="nonzero" d="M463.791 291.173h-40.023v-1.07h40.023v1.07zm-39.57-.453h39.117v-.164H424.22v.164z"/>
                <path fill="#FFF" fill-rule="nonzero" d="M423.994 303.381H463.564V304.381H423.994z"/>
                <path fill="#B0B3BF" fill-rule="nonzero" d="M463.791 304.233h-40.023v-1.08h40.023v1.08zm-39.57-.453h39.117v-.173H424.22v.173z"/>
                <g fill="#F0EFEF" fill-rule="nonzero" opacity=".5">
                    <path d="M28.188 9.496H.58S-1.07 4.825 5.523 4.96c.727-1.676 2.101-2.986 3.81-3.634 1.707-.647 3.605-.576 5.26.197 2.603 1.378 2.72 4.67 2.72 4.67s3.302-.272 3.855 2.068c.018 0 5.37-.28 7.02 1.234z" transform="translate(253.036 135.134)"/>
                </g>
                <path fill="#EFEEEE" fill-rule="nonzero" d="M235.197 317.293L290.593 317.293 290.593 77.888 235.197 42.019z"/>
                <path fill="#B0B3BF" fill-rule="nonzero" d="M290.82 317.51h-55.85V41.602l.354.227 55.495 35.933v239.75zm-55.396-.453h54.942V77.997l-54.942-35.57v274.63z"/>
                <path fill="#FFF" fill-rule="nonzero" d="M179.547 42.019H234.94299999999998V317.693H179.547z"/>
                <path fill="#B0B3BF" fill-rule="nonzero" d="M235.17 317.928h-55.85V41.792h55.85v276.136zm-55.396-.454h54.942V42.245h-54.942v275.23z"/>
                <path fill="#FFF" fill-rule="nonzero" d="M179.619 78.314H234.997V79.314H179.619z"/>
                <path fill="#B0B3BF" fill-rule="nonzero" d="M235.224 79.412h-55.831v-1.324h55.831v1.324zm-55.378-.454h54.925v-.417h-54.925v.417z"/>
                <path fill="#FFF" fill-rule="nonzero" d="M179.619 96.598H234.997V97.598H179.619z"/>
                <path fill="#B0B3BF" fill-rule="nonzero" d="M235.224 97.696h-55.831V96.37h55.831v1.325zm-55.378-.454h54.925v-.417h-54.925v.417z"/>
                <path fill="#FFF" fill-rule="nonzero" d="M179.619 114.873H234.997V115.873H179.619z"/>
                <path fill="#B0B3BF" fill-rule="nonzero" d="M235.224 115.97h-55.831v-1.324h55.831v1.324zm-55.378-.453h54.925v-.417h-54.925v.417z"/>
                <path fill="#FFF" fill-rule="nonzero" d="M179.619 133.157H234.997V134.157H179.619z"/>
                <path fill="#B0B3BF" fill-rule="nonzero" d="M235.224 134.227h-55.831v-1.324h55.831v1.324zm-55.378-.453h54.925v-.418h-54.925v.418z"/>
                <path fill="#FFF" fill-rule="nonzero" d="M179.619 151.432H234.997V152.432H179.619z"/>
                <path fill="#B0B3BF" fill-rule="nonzero" d="M235.224 152.53h-55.831v-1.325h55.831v1.324zm-55.378-.454h54.925v-.417h-54.925v.417z"/>
                <path fill="#FFF" fill-rule="nonzero" d="M179.619 169.716H234.997V170.716H179.619z"/>
                <path fill="#B0B3BF" fill-rule="nonzero" d="M235.224 170.804h-55.831v-1.324h55.831v1.324zm-55.378-.453h54.925v-.418h-54.925v.418z"/>
                <path fill="#FFF" fill-rule="nonzero" d="M179.619 187.991H234.997V188.991H179.619z"/>
                <path fill="#B0B3BF" fill-rule="nonzero" d="M235.224 189.088h-55.831v-1.351h55.831v1.35zm-55.378-.444h54.925v-.418h-54.925v.418z"/>
                <path fill="#FFF" fill-rule="nonzero" d="M179.619 206.265H234.997V207.265H179.619z"/>
                <path fill="#B0B3BF" fill-rule="nonzero" d="M235.224 207.363h-55.831v-1.324h55.831v1.324zm-55.378-.454h54.925v-.417h-54.925v.417z"/>
                <path fill="#FFF" fill-rule="nonzero" d="M179.619 224.549H234.997V225.549H179.619z"/>
                <path fill="#B0B3BF" fill-rule="nonzero" d="M235.224 225.647h-55.831v-1.324h55.831v1.324zm-55.378-.454h54.925v-.417h-54.925v.417z"/>
                <path fill="#FFF" fill-rule="nonzero" d="M179.619 242.824H234.997V243.824H179.619z"/>
                <path fill="#B0B3BF" fill-rule="nonzero" d="M235.224 243.967h-55.831v-1.324h55.831v1.324zm-55.378-.454h54.925v-.453h-54.925v.453z"/>
                <path fill="#FFF" fill-rule="nonzero" d="M179.619 261.108H234.997V262.108H179.619z"/>
                <path fill="#B0B3BF" fill-rule="nonzero" d="M235.224 262.205h-55.831v-1.324h55.831v1.324zm-55.378-.453h54.925v-.417h-54.925v.417z"/>
                <path fill="#FFF" fill-rule="nonzero" d="M179.619 279.383H234.997V280.383H179.619z"/>
                <path fill="#B0B3BF" fill-rule="nonzero" d="M235.224 280.48h-55.831v-1.324h55.831v1.324zm-55.378-.453h54.925v-.417h-54.925v.417z"/>
                <path fill="#FFF" fill-rule="nonzero" d="M179.619 297.667H234.997V298.667H179.619z"/>
                <path fill="#B0B3BF" fill-rule="nonzero" d="M235.224 298.755h-55.831v-1.279h55.831v1.28zm-55.378-.453h54.925v-.418h-54.925v.418z"/>
                <path fill="#FFF" fill-rule="nonzero" d="M340.955 317.229L404.622 317.229 404.622 42.091 340.955 0.871z"/>
                <path fill="#B0B3BF" fill-rule="nonzero" d="M404.849 317.429h-64.12V.453l.344.227 63.776 41.284V317.43zm-63.667-.453h63.214V42.173L341.182 1.252v315.724z"/>
                <path fill="#FFF" fill-rule="nonzero" d="M276.989 0.871H340.65599999999995V317.70099999999996H276.989z"/>
                <path fill="#B0B3BF" fill-rule="nonzero" d="M340.882 317.928h-64.12V.644h64.12v317.284zm-63.667-.454h63.214V1.097h-63.214v316.377z"/>
                <path fill="#FFF" fill-rule="nonzero" d="M277.079 42.59H340.728V43.59H277.079z"/>
                <path fill="#B0B3BF" fill-rule="nonzero" d="M340.946 43.814h-64.093v-1.45h64.093v1.45zm-63.64-.453h63.187v-.544h-63.187v.544z"/>
                <path fill="#FFF" fill-rule="nonzero" d="M277.079 63.595H340.728V64.595H277.079z"/>
                <path fill="#B0B3BF" fill-rule="nonzero" d="M340.946 64.819h-64.093v-1.451h64.093v1.451zm-63.64-.453h63.187v-.545h-63.187v.545z"/>
                <path fill="#FFF" fill-rule="nonzero" d="M277.079 84.599H340.728V85.599H277.079z"/>
                <path fill="#B0B3BF" fill-rule="nonzero" d="M340.946 85.824h-64.093v-1.479h64.093v1.479zm-63.64-.454h63.187v-.544h-63.187v.544z"/>
                <path fill="#FFF" fill-rule="nonzero" d="M277.079 105.604H340.728V106.604H277.079z"/>
                <path fill="#B0B3BF" fill-rule="nonzero" d="M340.946 106.838h-64.093v-1.46h64.093v1.46zm-63.64-.454h63.187v-.553h-63.187v.553z"/>
                <path fill="#FFF" fill-rule="nonzero" d="M277.079 126.618H340.728V127.618H277.079z"/>
                <path fill="#B0B3BF" fill-rule="nonzero" d="M340.946 127.879h-64.093v-1.452h64.093v1.452zm-63.64-.454h63.187v-.544h-63.187v.544z"/>
                <path fill="#FFF" fill-rule="nonzero" d="M277.079 147.623H340.728V148.623H277.079z"/>
                <path fill="#B0B3BF" fill-rule="nonzero" d="M340.946 148.847h-64.093v-1.451h64.093v1.451zm-63.64-.453h63.187v-.563h-63.187v.563z"/>
                <path fill="#FFF" fill-rule="nonzero" d="M277.079 168.627H340.728V169.627H277.079z"/>
                <path fill="#B0B3BF" fill-rule="nonzero" d="M340.946 169.852h-64.093V168.4h64.093v1.45zm-63.64-.454h63.187v-.544h-63.187v.544z"/>
                <path fill="#FFF" fill-rule="nonzero" d="M277.079 189.632H340.728V190.632H277.079z"/>
                <path fill="#B0B3BF" fill-rule="nonzero" d="M340.946 190.866h-64.093v-1.46h64.093v1.46zm-63.64-.454h63.187v-.553h-63.187v.553z"/>
                <path fill="#FFF" fill-rule="nonzero" d="M277.079 210.646H340.728V211.646H277.079z"/>
                <path fill="#B0B3BF" fill-rule="nonzero" d="M340.946 211.87h-64.093v-1.46h64.093v1.46zm-63.64-.453h63.187v-.544h-63.187v.544z"/>
                <path fill="#FFF" fill-rule="nonzero" d="M277.079 231.651H340.728V232.651H277.079z"/>
                <path fill="#B0B3BF" fill-rule="nonzero" d="M340.946 232.875h-64.093v-1.451h64.093v1.451zm-63.64-.453h63.187v-.545h-63.187v.545z"/>
                <path fill="#FFF" fill-rule="nonzero" d="M277.079 252.655H340.728V253.655H277.079z"/>
                <path fill="#B0B3BF" fill-rule="nonzero" d="M340.946 253.88h-64.093v-1.451h64.093v1.45zm-63.64-.454h63.187v-.544h-63.187v.544z"/>
                <path fill="#FFF" fill-rule="nonzero" d="M277.079 273.669H340.728V274.669H277.079z"/>
                <path fill="#B0B3BF" fill-rule="nonzero" d="M340.946 274.894h-64.093v-1.452h64.093v1.452zm-63.64-.454h63.187v-.544h-63.187v.544z"/>
                <path fill="#FFF" fill-rule="nonzero" d="M277.079 294.674H340.728V295.674H277.079z"/>
                <path fill="#B0B3BF" fill-rule="nonzero" d="M340.946 295.898h-64.093v-1.45h64.093v1.45zm-63.64-.453h63.187v-.544h-63.187v.544z"/>
                <path fill="#FFF" fill-rule="nonzero" d="M96.771 298.32H98.53V317.701H96.771z" transform="rotate(-180 97.65 308.01)"/>
                <path fill="#B0B3BF" fill-rule="nonzero" d="M98.748 317.928h-2.213v-19.835h2.213v19.835zm-1.76-.454h1.306v-18.927h-1.306v18.927z"/>
                <path fill="#FFF" fill-rule="nonzero" d="M76.101 261.253c.735 21.667 10.149 39.144 20.053 39.135 9.904-.01 19.318-17.468 20.052-39.135 1.288-21.703-10.593-99.881-20.388-99.763-9.84-.127-21.023 78.06-19.717 99.763z"/>
                <path fill="#B0B3BF" fill-rule="nonzero" d="M96.136 300.614c-10.267 0-19.554-18.02-20.28-39.352-1.188-19.68 8.28-88.97 17.64-98.802.56-.704 1.389-1.144 2.286-1.215h.045c.9.08 1.728.522 2.295 1.224 9.586 10.067 19.454 79.267 18.293 98.793-.708 21.331-9.995 39.352-20.28 39.352zm-.345-138.916c-.776.077-1.487.466-1.968 1.08-9.278 9.767-18.683 78.83-17.495 98.42.762 21.142 9.831 39 19.808 39 9.976 0 19.109-17.822 19.825-38.918.58-9.858-1.55-31.743-5.178-53.155-4.09-24.125-8.943-41.058-12.988-45.302-.486-.614-1.198-1.006-1.977-1.088l-.027-.037zM.535 317.456H574.6189999999999V318.456H.535z"/>
                <path fill="#FFF" fill-rule="nonzero" d="M38.862 312.414c-.798-1.161-1.505-2.041-2.04-3.02-.794-1.374-1.471-2.812-2.023-4.3-.553-1.64.318-2.657 2.05-2.72 2.554.003 5.043.812 7.11 2.313.998.643 1.941 1.378 3.166 2.249-.343-1.217-.6-2.457-.771-3.71-.266-2.07-.305-4.161-.118-6.24.344-2.466 2.34-3.273 4.535-2.149 2.194 1.125 3.945 3.165 5.496 5.17 1.224 1.578 2.312 3.256 3.455 4.888l.68.907c.042-.227.06-.458.055-.69-.508-2.72.734-4.235 3.519-4.062 2.548.097 5.016.915 7.119 2.358.2.145.408.272.853.553-.073-.635-.11-1.07-.173-1.506-.907-6.285-1.94-12.57-2.72-18.873-.15-2.344-.15-4.694 0-7.038-.015-.072-.015-.146 0-.218.39-.743.625-1.877 1.215-2.104.835-.087 1.662.226 2.23.844 1.422 1.545 2.686 3.228 3.774 5.024 4.416 7.655 7.491 15.899 10.484 24.18l.744 1.986h.272c.145-1.642.181-3.302.453-4.925.562-3.301 1.215-6.594 1.932-9.877.22-.8.593-1.552 1.097-2.213.286-.57.84-.96 1.474-1.035.634-.075 1.263.175 1.673.663.699.684 1.281 1.478 1.724 2.35 1.578 3.34 2.668 6.888 3.237 10.538.363 1.814.608 3.628.907 5.442.084.347.187.689.309 1.025.245-.427.39-.69.544-.907.534-1.025 1.14-2.01 1.814-2.948.462-.571 1.333-1.297 1.868-1.197.535.1 1.224 1.016 1.56 1.714.408.855.66 1.777.744 2.72.308 3.057.498 6.123.743 9.188.064.708-.208 1.016-.907.907-.253-.013-.508-.013-.761 0H22.61c-1.02.085-2.027-.264-2.775-.961-1.225-1.17-2.494-2.304-3.7-3.501-.37-.401-.677-.857-.907-1.351-1.025-2.005-.236-3.628 1.995-3.628 2.383-.068 4.767.12 7.11.562 4.59.97 9.115 2.24 13.668 3.383l.861.209z"/>
                <path fill="#B0B3BF" fill-rule="nonzero" d="M22.62 317.928c-1.07.074-2.122-.293-2.912-1.016-.442-.441-.904-.874-1.388-1.297-.762-.716-1.56-1.451-2.313-2.204-.37-.424-.676-.9-.906-1.415-.548-.855-.61-1.935-.164-2.847.544-.753 1.442-1.166 2.367-1.089 2.4-.065 4.798.127 7.156.572 3.247.68 6.512 1.532 9.677 2.349l3.954 1.006.245.055c-.145-.2-.28-.381-.408-.572-.479-.634-.918-1.297-1.315-1.986-.797-1.385-1.477-2.836-2.031-4.335-.294-.676-.244-1.453.136-2.086.512-.635 1.297-.989 2.113-.952 2.603.015 5.137.835 7.255 2.349.68.435 1.315.907 2.05 1.442l.644.462c-.064-.235-.118-.462-.172-.689-.228-.807-.385-1.633-.472-2.467l-.073-.907c-.198-1.808-.198-3.633 0-5.441.078-1.052.668-1.999 1.579-2.53 1.076-.47 2.313-.389 3.319.217 2.33 1.179 3.963 3.147 5.578 5.233.843 1.097 1.641 2.25 2.412 3.374.345.508.698 1.016 1.052 1.514l.327.472c-.339-1.148-.117-2.388.598-3.347.832-.811 2.002-1.176 3.147-.98 2.6.08 5.12.911 7.256 2.395.127.09.263.173.453.29v-.127c0-.344-.072-.616-.109-.906l-.816-5.442c-.67-4.39-1.351-8.933-1.913-13.414-.155-1.619-.182-3.247-.082-4.87 0-.726.054-1.46.054-2.195-.008-.108.007-.216.046-.317.109-.209.217-.472.317-.717.254-.644.517-1.306 1.016-1.496.928-.134 1.861.207 2.485.907 1.43 1.554 2.704 3.246 3.8 5.051 4.29 7.437 7.256 15.373 10.502 24.216l.49 1.324.118.308.082-1.152c.052-1.139.167-2.274.344-3.4.526-3.12 1.161-6.35 1.923-9.886.23-.834.618-1.616 1.143-2.304.363-.608.978-1.024 1.678-1.134.683-.033 1.346.236 1.813.735.733.696 1.345 1.508 1.814 2.403 1.584 3.362 2.68 6.932 3.256 10.603.227 1.16.417 2.34.599 3.482.1.662.2 1.324.317 1.977.036.17.081.336.136.5l.29-.5c.173-.29.345-.58.508-.907.388-.735.837-1.436 1.343-2.095.417-.498 1.378-1.405 2.095-1.27.852.164 1.532 1.443 1.723 1.815.414.873.672 1.812.762 2.775.2 2.022.353 4.081.508 6.067.072 1.043.154 2.086.235 3.13.066.341-.028.695-.254.96-.253.207-.587.287-.906.218H22.756l-.137.09zm-4.78-9.423h-.608c-.775-.063-1.526.28-1.986.907-.357.783-.285 1.695.19 2.412.23.46.53.883.889 1.252.753.752 1.542 1.487 2.304 2.195l1.396 1.305c.699.654 1.64.983 2.594.907h83.838c.184-.013.369-.013.553 0 .193.043.395.007.562-.1.117-.175.16-.39.118-.598-.09-1.043-.163-2.086-.245-3.129-.154-1.986-.308-4.045-.508-6.058-.084-.909-.326-1.796-.716-2.621-.327-.671-.907-1.488-1.397-1.587-.49-.1-1.17.517-1.66 1.115-.492.644-.931 1.327-1.315 2.04-.163.3-.335.59-.508.908-.09.154-.19.317-.299.517l-.499.907-.154-.5c-.045-.162-.1-.308-.136-.435-.076-.196-.134-.4-.172-.607-.118-.662-.218-1.324-.327-1.986-.181-1.143-.362-2.313-.59-3.465-.563-3.631-1.648-7.162-3.219-10.484-.43-.846-.997-1.615-1.678-2.277-.368-.41-.899-.64-1.45-.625-.568.106-1.061.453-1.352.952-.488.64-.851 1.366-1.07 2.14-.762 3.52-1.397 6.748-1.923 9.859-.17 1.115-.283 2.238-.336 3.364 0 .508-.072 1.025-.117 1.542v.19l-.626.064-.318-.825-.49-1.333c-3.2-8.825-6.194-16.733-10.466-24.143-1.082-1.78-2.34-3.448-3.754-4.98-.505-.549-1.233-.839-1.977-.788-.318.127-.545.698-.762 1.242-.1.263-.209.526-.327.762v.073c0 .734 0 1.478-.054 2.213-.1 1.599-.073 3.203.081 4.797.554 4.48 1.243 9.015 1.905 13.405.272 1.814.553 3.628.816 5.442.046.28.073.562.118.907l.118 1.07-.798-.508-.472-.3c-2.063-1.428-4.493-2.234-7.001-2.321-1.007-.169-2.036.14-2.784.834-.614.86-.795 1.955-.49 2.966.026.135.026.273 0 .408v.345l-.055.607-.353-.499c-.336-.462-.508-.716-.68-.96-.354-.5-.708-1.017-1.053-1.525-.77-1.115-1.56-2.267-2.394-3.346-1.578-2.05-3.183-3.973-5.442-5.115-.876-.537-1.958-.615-2.902-.209-.78.461-1.28 1.28-1.333 2.186-.195 1.76-.195 3.536 0 5.296l.073.907c.086.81.238 1.61.453 2.395.109.408.209.834.308 1.287l.127.572-.48-.336-1.134-.825c-.726-.535-1.351-.998-2.022-1.424-2.03-1.468-4.47-2.264-6.975-2.276-.672-.037-1.322.241-1.76.752-.288.52-.318 1.143-.08 1.687.548 1.474 1.218 2.9 2.003 4.263.387.672.814 1.32 1.28 1.94.244.336.489.681.752 1.062l.326.48-1.006-.235-.381-.09L34 311.442c-3.156-.825-6.412-1.669-9.65-2.358-2.145-.414-4.327-.608-6.511-.58z"/>
                <path fill="#B0B3BF" fill-rule="nonzero" d="M40.368 289.042v13.876h-.798v-13.885c.148.009.296.009.444 0l.354.009z"/>
                <path fill="#FFF" fill-rule="nonzero" d="M49.03 271.474c-.318 9.478-4.336 17.178-8.662 17.568h-.354c-.148.009-.296.009-.444 0-4.281-.49-8.244-8.163-8.562-17.559-.59-9.75 4.435-44.884 8.861-44.839 4.426.046 9.74 35.08 9.16 44.83z"/>
                <path fill="#B0B3BF" fill-rule="nonzero" d="M40.014 289.314c-.157.009-.314.009-.471 0-4.535-.517-8.444-8.49-8.761-17.776-.536-8.852 3.736-40.05 7.962-44.44.275-.342.679-.556 1.116-.59.437.036.84.25 1.116.59 4.326 4.534 8.779 35.697 8.253 44.44-.318 9.396-4.29 17.368-8.861 17.785l-.354-.01zm-.109-62.452c-.316.03-.605.192-.798.444-1.814 1.878-3.9 9.46-5.65 20.289-1.56 9.595-2.449 19.408-2.186 23.87.309 9.07 4.063 16.851 8.362 17.341.25.027.503.027.753 0 4.28-.38 8.163-8.335 8.453-17.35.508-8.516-3.982-39.796-8.163-44.159-.204-.24-.487-.397-.798-.444l.027.009z"/>
                <path fill="#3B3C40" fill-rule="nonzero" d="M369.687 340.592c0 1.56-72.456 2.83-161.834 2.83-89.38 0-161.844-1.27-161.844-2.83s72.456-2.838 161.844-2.838c89.388 0 161.834 1.27 161.834 2.838z"/>
                <g transform="translate(76.183 233.99)">
                    <path fill="#3B3C40" d="M198.801 93.778L51.741 93.778 17.096 88.853 11.654 88.862 8.045 77.017 8.625 54.852 198.801 54.852z"/>
                    <path fill="#3B3C40" d="M92.508 61.799h9.604c8.163 0 14.774 10.194 14.774 22.782 0 12.589-6.611 22.783-14.774 22.783h-9.604c-8.163 0-14.765-10.194-14.765-22.783 0-12.588 6.602-22.782 14.765-22.782zM245 107.364c-8.163 0-14.765-10.194-14.765-22.783 0-12.588 6.611-22.782 14.765-22.782h9.613c8.163 0 14.765 10.194 14.765 22.782 0 12.589-6.611 22.783-14.765 22.783h-9.613zM29.584 61.799h9.605c8.162 0 14.774 10.194 14.774 22.782 0 12.589-6.612 22.783-14.774 22.783h-9.605c-8.888 0-9.178-45.565 0-45.565z"/>
                    <path fill="#3B3C40" d="M29.584 107.364c8.163 0 14.774-10.23 14.774-22.783 0-12.552-6.638-22.782-14.774-22.782-8.135 0-14.774 10.23-14.774 22.782s6.64 22.783 14.774 22.783z"/>
                    <ellipse cx="29.584" cy="84.581" fill="#FFF" fill-rule="nonzero" rx="10.022" ry="15.463"/>
                    <path fill="#FFF" fill-rule="nonzero" d="M29.584 101.015c-6.058 0-10.992-7.373-10.992-16.434 0-9.06 4.934-16.434 10.992-16.434 6.059 0 10.992 7.374 10.992 16.434 0 9.06-4.933 16.434-10.992 16.434zm0-30.936c-4.997 0-9.069 6.512-9.069 14.511 0 8 4.154 14.511 9.07 14.511 4.915 0 9.069-6.638 9.069-14.51 0-7.873-4.19-14.512-9.07-14.512z"/>
                    <path fill="#3B3C40" d="M159.386 61.799h9.604c8.163 0 14.774 10.194 14.774 22.782 0 12.589-6.62 22.783-14.774 22.783h-9.604c-8.888 0-9.179-45.565 0-45.565z"/>
                    <path fill="#3B3C40" d="M159.386 107.364c8.162 0 14.765-10.23 14.765-22.783 0-12.552-6.63-22.782-14.765-22.782-8.136 0-14.774 10.23-14.774 22.782s6.638 22.783 14.774 22.783z"/>
                    <path fill="#FFF" d="M159.386 100.045c5.523 0 10.021-6.948 10.021-15.464s-4.534-15.463-10.021-15.463c-5.487 0-10.031 6.947-10.031 15.463 0 8.516 4.507 15.464 10.03 15.464z"/>
                    <path fill="#FFF" fill-rule="nonzero" d="M159.386 101.015c-6.068 0-10.992-7.373-10.992-16.434 0-9.06 4.924-16.434 10.992-16.434 6.067 0 10.992 7.374 10.992 16.434 0 9.06-4.934 16.434-10.992 16.434zm0-30.936c-4.998 0-9.07 6.512-9.07 14.511 0 8 4.145 14.511 9.07 14.511 4.924 0 9.069-6.638 9.069-14.51 0-7.873-4.163-14.512-9.07-14.512z"/>
                    <path fill="#3B3C40" fill-rule="nonzero" d="M146.97 62.742c-3.677.128-7.195-1.506-9.469-4.399-2.403-3.147-3.047-7.572-1.814-12.143 2.413-8.77 11.165-15.9 19.518-15.9 3.678-.122 7.194 1.515 9.468 4.409 2.394 3.138 3.047 7.573 1.814 12.144-2.422 8.76-11.174 15.89-19.517 15.89zm8.262-29.929c-7.31 0-14.992 6.349-17.132 14.076-1.052 3.827-.553 7.464 1.37 9.976 1.812 2.27 4.597 3.544 7.5 3.428 7.3 0 14.991-6.348 17.132-14.075 1.052-3.828.553-7.474-1.37-9.977-1.805-2.284-4.59-3.57-7.5-3.464v.036z"/>
                    <path fill="#CA5858" d="M10.638 38.808c5.33-1.562 10.752-2.791 16.235-3.682 8.86-5.986 19.236-19.5 28.532-24.778 4.704-2.768 9.844-4.719 15.2-5.768 19.2-3.401 48.068-3.89 65.917-3.546 17.413.335 38.608 1.678 51.033 5.578 18.139 5.704 30.283 22.546 43.805 32.269 15.01 2.421 29.657 6.929 40.813 12.606.395.218.712.554.907.961l3.355 7.392 1.968 1.94c.575.56.93 1.306.998 2.105l.853 7.972 1.523 1.868c.241.3.381.668.4 1.052l-.218 3.301c-.073 1.043-.708 2.549-1.869 2.549h-.907l-.181 6.349c.38-.023.753.121 1.019.395.266.273.4.648.369 1.028v3.955c.047.381-.084.763-.355 1.035-.27.273-.651.406-1.033.361h-97.614c-3.038-.408-2.63-6.23-3.99-14.184-1.814-10.403-8.09-21.023-18.094-21.023-12.053 0-17.586 15.527-17.586 25.567-.005 2.791.398 5.569 1.198 8.244.244.825-.2 1.396-.835 1.396h-90.34c-3.038-.408-2.63-6.23-3.99-14.184-1.814-10.403-8.09-21.023-18.14-21.023-12.053 0-17.585 15.527-17.585 25.567 0 1.173.07 2.345.209 3.51.136 1.151-.3 1.315-.817 1.179l-3.963-1.07c-.791-.201-1.503-.638-2.04-1.252L3.6 84.617c-.62-.689-.946-1.594-.907-2.52V77.47l-1.379-4.644c-.271-.968-.438-1.962-.499-2.965l-.208-2.558c-.066-.977.122-1.955.544-2.839l1.514-3.428.998-5.868-.662-1.097c-.287-.419-.386-.939-.272-1.433l1.37-5.242c.108-.337.355-.611.68-.753l1.396-.762c.729-2.276 1.819-4.42 3.229-6.348.328-.362.758-.616 1.233-.726z"/>
                    <path fill="#3B3C40" fill-rule="nonzero" d="M278.975 94.258h-97.587c-2.648-.353-3.047-3.673-3.628-8.706-.208-1.75-.453-3.746-.816-5.877-1.75-10.267-7.881-20.624-17.622-20.624-6.584 0-10.647 4.77-12.897 8.77-2.706 5.02-4.153 10.622-4.217 16.325-.006 2.746.392 5.478 1.18 8.108.179.491.108 1.04-.191 1.47-.257.347-.666.55-1.098.543H51.741c-2.648-.353-3.047-3.673-3.628-8.706-.208-1.75-.444-3.746-.816-5.877-1.75-10.267-7.881-20.624-17.622-20.624-6.584 0-10.647 4.77-12.897 8.77-2.706 5.02-4.153 10.622-4.217 16.325.002 1.155.071 2.309.209 3.455.144.533.01 1.102-.354 1.515-.299.24-.702.306-1.061.172l-3.963-1.07c-.875-.216-1.663-.694-2.259-1.37L3.32 84.99c-.703-.778-1.076-1.799-1.043-2.847v-4.535l-1.36-4.535c-.284-.997-.46-2.022-.526-3.056l-.2-2.567c-.077-1.058.123-2.118.58-3.074l1.497-3.365.907-5.641-.571-.907c-.363-.53-.482-1.19-.327-1.814l1.37-5.242c.137-.465.467-.848.907-1.052l1.233-.68c.741-2.25 1.834-4.369 3.238-6.277.364-.449.853-.78 1.406-.952 5.315-1.546 10.722-2.758 16.189-3.628 3.99-2.72 8.217-6.883 12.697-11.3 5.251-5.179 10.684-10.539 15.79-13.44 4.752-2.794 9.944-4.76 15.354-5.814C88.6 1.053 116.424.317 136.467.698c16.207.318 38.237 1.542 51.17 5.605 12.162 3.828 21.53 12.507 30.59 20.86 4.189 4.053 8.616 7.851 13.26 11.373 15.2 2.349 29.712 6.811 40.93 12.525.48.272.865.687 1.098 1.188l3.32 7.31 1.904 1.886c.655.635 1.058 1.486 1.134 2.395l.843 7.826 1.433 1.796c.307.375.482.84.499 1.324l-.218 3.356c-.081 1.242-.907 3.002-2.349 3.002h-.453l-.154 5.442c.318.072.61.232.843.462.355.373.544.873.526 1.388v3.954c.042.507-.142 1.007-.501 1.367-.36.36-.86.543-1.367.501zM159.313 58.09c10.303 0 16.742 10.765 18.565 21.421.372 2.159.608 4.163.816 5.932.554 4.589.907 7.618 2.767 7.863h97.514c.635 0 .907-.281.907-.907v-3.972c.017-.262-.07-.52-.245-.717-.182-.16-.42-.243-.662-.227-.13-.002-.252-.056-.34-.15-.09-.094-.137-.22-.132-.348l.172-6.349c.005-.262.22-.472.481-.472h.907c.825 0 1.342-1.215 1.397-2.104l.217-3.292c-.016-.264-.118-.515-.29-.716l-1.514-1.869c-.062-.07-.1-.16-.11-.254l-.852-7.972c-.06-.688-.365-1.332-.861-1.813l-1.968-1.95c-.039-.045-.072-.094-.1-.145l-3.356-7.383c-.143-.302-.37-.557-.653-.735-11.128-5.677-25.576-10.14-40.703-12.588-.073-.008-.142-.036-.2-.082-4.7-3.555-9.176-7.395-13.404-11.5-8.988-8.325-18.275-16.923-30.238-20.687-12.824-4.036-34.754-5.251-50.897-5.56-19.953-.39-47.787.345-65.826 3.538-5.304 1.035-10.392 2.968-15.046 5.713-4.997 2.84-10.375 8.163-15.59 13.287-4.535 4.48-8.825 8.707-12.906 11.473-.057.038-.122.063-.19.072-5.465.869-10.869 2.08-16.18 3.628-.355.11-.67.321-.907.608-1.39 1.876-2.459 3.97-3.166 6.194-.04.113-.121.206-.226.263l-1.397.762c-.272.154-.4.281-.444.454l-1.37 5.25c-.082.37-.003.755.218 1.062l.662 1.088c.06.097.083.214.063.327L3.23 61.11c.008.035.008.073 0 .108l-1.515 3.429c-.39.81-.561 1.706-.499 2.603l.2 2.566c.06.97.22 1.93.48 2.866l1.388 4.644c.005.045.005.09 0 .136v4.625c-.039.802.238 1.586.771 2.186l1.814 1.868c.477.548 1.11.937 1.814 1.116l3.972 1.07c.063.016.128.016.19 0 0 0 .091-.145 0-.671-.144-1.186-.217-2.38-.217-3.574 0-10.502 5.74-26.047 18.066-26.047 10.294 0 16.742 10.765 18.565 21.422.372 2.159.608 4.163.817 5.931.553 4.59.906 7.619 2.766 7.864h90.286c.13.005.254-.053.335-.155.091-.198.091-.427 0-.625-.821-2.72-1.234-5.548-1.224-8.39.009-10.448 5.75-25.992 18.075-25.992z"/>
                    <path fill="#B73331" d="M4.145 54.897l-.608-1.007c-.256-.377-.348-.842-.254-1.287l1.26-4.844c.083-.308.304-.56.6-.68l1.305-.707 3.964-.064c.77 0 1.043.744.517 1.334l-6.177 7.02c-.158.163-.38.249-.607.235z"/>
                    <path fill="#D16870" d="M276.1 60.175l1.968 1.941h.363v.046l-4.789 5.859c-.891.91-2.109 1.43-3.383 1.442l-49.428.172c-1.73-.004-3.448-.285-5.088-.835l-26.446-9.459 29.493 5.215c2.721.48 2.53.29 5.687.29h42.082c1.814 0 4.462-.236 5.686-1.006l3.855-3.628v-.037zm3.727 11.936c.112.139.201.295.263.462l-7.564 3.828 7.301-4.29z"/>
                    <path fill="#3B3C40" d="M279.165 82.93l-.181 6.35h-3.274c-.226.017-.448-.057-.619-.205-.17-.149-.274-.36-.288-.585l-.435-4.662c-.047-.233.02-.475.178-.653.158-.179.391-.272.629-.253l3.99.009zM267.166 54.317H220.74c-.28.002-.535.162-.66.413-.124.25-.097.55.07.775l5.252 8.09c.538.763 1.406 1.227 2.34 1.251h40.186c.412-.05.724-.393.735-.807l-.762-9.024c-.002-.19-.082-.373-.22-.504-.138-.132-.324-.202-.515-.194z"/>
                    <path fill="#3B3C40" d="M264.681 54.317h-43.94c-.28.002-.536.162-.66.413-.125.25-.098.55.07.775l5.25 8.09c.54.763 1.407 1.227 2.34 1.251h37.684c.411-.05.724-.393.735-.807l-.762-9.024c-.003-.188-.08-.367-.214-.498-.134-.13-.315-.203-.503-.2zM269.787 81.552H224.75c-.933.037-1.823.403-2.512 1.034l-6.131 6.349c-.22.223-.278.558-.147.843.13.284.424.457.736.435h54.417c.245.01.481-.093.643-.277.162-.185.232-.433.191-.675l-1.116-6.938c-.126-.468-.558-.788-1.043-.77z"/>
                    <path fill="#3B3C40" d="M267.194 81.552h-42.445c-.933.037-1.823.403-2.512 1.034l-6.131 6.349c-.22.223-.278.558-.147.843.13.284.424.457.736.435h51.886c.242.004.473-.1.63-.285.155-.184.22-.43.177-.667l-1.115-6.938c-.13-.482-.582-.805-1.08-.77zM213.013 82.93h-9.25c-.969.002-1.89.418-2.531 1.143l-3.474 3.846c-.257.23-.336.602-.196.918.14.316.469.506.813.47h8.761c.968-.008 1.9-.37 2.621-1.016l3.827-4.082c.254-.207.338-.558.204-.858-.134-.299-.451-.471-.775-.42z"/>
                    <path fill="#3B3C40" d="M210.41 82.93h-6.657c-.968.002-1.89.418-2.53 1.143l-3.474 3.846c-.257.23-.336.602-.196.918.14.316.469.506.813.47h6.167c.968-.008 1.9-.37 2.621-1.016l3.827-4.082c.254-.207.338-.558.204-.858-.134-.299-.451-.471-.775-.42z"/>
                    <path fill="#FFF" d="M272.662 51.84c.172.18.313.384.418.608 1.405 2.323 2.532 4.804 3.355 7.392l-3.945 3.863c-.208.21-.524.27-.795.152-.271-.118-.442-.391-.43-.687l-.788-8.29c-.055-.552.254-.906.698-1.369l1.487-1.668z"/>
                    <rect width="8.552" height="2.703" x="244.711" y="58.235" fill="#FFF" fill-rule="nonzero" rx="1.351"/>
                    <rect width="8.552" height="2.703" x="246.071" y="58.235" fill="#FFF" fill-rule="nonzero" rx="1.351"/>
                    <path fill="#3B3C40" d="M87.62 47.75h-6.35c-.762.005-1.378.625-1.378 1.388 0 .761.618 1.379 1.379 1.379h6.348c.762 0 1.379-.618 1.379-1.379 0-.763-.616-1.383-1.379-1.388zM48.485 47.75h-6.349c-.762.005-1.378.625-1.378 1.388 0 .761.617 1.379 1.378 1.379h6.349c.761 0 1.379-.618 1.379-1.379 0-.763-.616-1.383-1.379-1.388z"/>
                    <path fill="#FFF" d="M185.669 51.197l27.063 3.002c.623.059 1.187.391 1.542.907l5.178 8.262c.176.243.188.568.031.823-.156.256-.451.392-.747.347l-29.44-5.215c-.57-.132-1.053-.506-1.324-1.025l-3.056-6.031c-.11-.245-.082-.53.073-.749.154-.22.412-.341.68-.321z"/>
                    <path fill="#3B3C40" fill-rule="nonzero" d="M218.854 65.037c-.067.009-.134.009-.2 0l-29.44-5.215c-.722-.149-1.336-.62-1.668-1.279l-3.047-6.022c-.22-.404-.196-.897.062-1.279.257-.381.705-.587 1.162-.535l27.054 2.993c.77.095 1.463.514 1.905 1.152l5.178 8.262c.277.415.277.955 0 1.37-.217.346-.598.555-1.006.553zm-33.276-13.341c-.082.001-.158.046-.2.117-.046.088-.046.194 0 .282l3.057 6.04c.202.39.568.67.998.762l29.42 5.215c.099.013.195-.033.246-.118.07-.098.07-.23 0-.327l-5.179-8.262c-.279-.397-.715-.655-1.197-.707l-27.109-3.002h-.036z"/>
                    <path fill="#FFF" fill-rule="nonzero" d="M228.44 39.543h-69.272c-2.394-.01-4.618-1.24-5.895-3.265 0 0-.708-1.143-1.877-2.993-.39-.599-.808-1.26-1.28-1.996-4.797-7.418-13.875-20.86-18.845-24.369 17.53-1.023 35.11-.765 52.602.77 1.74 0 3.465.336 5.079.99 13.495 5.35 27.426 21.548 39.488 30.863z"/>
                    <path fill="#3B3C40" fill-rule="nonzero" d="M228.44 40.023h-69.272c-2.583.008-4.986-1.324-6.349-3.519 0 0-.707-1.142-1.868-2.993l-1.279-1.995c-4.906-7.573-13.858-20.796-18.728-24.233-.162-.118-.235-.324-.181-.517.056-.198.23-.339.435-.354 17.56-1.014 35.17-.753 52.693.78 1.781.005 3.545.35 5.197 1.016 9.124 3.628 18.284 12.008 27.145 20.107 4.371 4 8.507 7.781 12.48 10.883.16.122.227.334.162.526-.07.18-.242.298-.435.3zM132.504 7.256c5.124 4.416 13.341 16.56 17.966 23.707l1.28 1.995c1.178 1.86 1.886 3.011 1.886 3.011 1.188 1.912 3.281 3.072 5.532 3.066h67.894c-3.674-2.93-7.465-6.394-11.455-10.05-8.797-8.044-17.894-16.324-26.855-19.952-1.562-.614-3.228-.922-4.906-.907-17.072-1.497-34.229-1.787-51.342-.87z"/>
                    <path fill="#3B3C40" d="M127.28 29.566h8c4.724 0 4.724 9.641 0 9.641h-8c-1.873-.01-3.387-1.528-3.392-3.401v-2.839c.005-1.872 1.52-3.39 3.392-3.4z"/>
                    <path fill="#3B3C40" d="M125.439 31.416c.854.005 1.546.697 1.55 1.551v3.628c-.025.297.083.59.295.798.212.21.507.312.803.281h7.4c1.425 0 1.425 1.515 0 1.515h-8.207c-.924.019-1.815-.348-2.458-1.012-.644-.664-.982-1.566-.934-2.489v-2.72c.005-.855.696-1.547 1.55-1.552z"/>
                    <path fill="#FFF" d="M146.48 39.08c-.258.471-.76.756-1.297.735H87.538c-.56.01-1.095-.224-1.465-.644-.37-.419-.538-.98-.458-1.533.118-.69.218-1.288.281-1.605.182-.907.336-1.814.535-2.721.11-.508.227-1.016.345-1.533.236-1.007.472-2.022.735-3.029.49-2.004 1.034-3.99 1.614-5.977.58-1.986 1.106-4.208 1.814-6.23.471-1.27 1.814-6.013 2.548-8.734.2-.666.811-1.122 1.506-1.125 7.255-.127 24.406-1.242 30.437 1.37 1.596.707 3.274 2.403 5.006 4.707 1.86 2.457 9.632 14.601 13.813 21.476.435.707.825 1.37 1.17 1.95l.852 1.451c.364.39.447.965.209 1.442z"/>
                    <path fill="#3B3C40" fill-rule="nonzero" d="M145.183 40.295H87.538c-.73-.007-1.418-.34-1.878-.907-.44-.515-.63-1.2-.516-1.868l.063-.363c.09-.544.172-.997.227-1.26.054-.263.109-.58.172-.907.109-.608.227-1.216.363-1.814.09-.426.19-.853.29-1.288l.054-.245c.236-1.016.472-2.022.735-3.038.49-1.968 1.034-3.982 1.614-5.995.182-.599.345-1.206.508-1.814.408-1.47.826-2.993 1.36-4.435.354-.97 1.243-4.117 1.96-6.648l.58-2.058c.257-.867 1.055-1.462 1.96-1.46 1.187 0 2.647-.073 4.289-.128 8.444-.272 21.204-.689 26.301 1.533 1.551.68 3.247 2.268 5.197 4.852 1.95 2.585 9.65 14.63 13.84 21.522.435.707.825 1.37 1.17 1.95l.861 1.46c.422.53.496 1.256.19 1.86-.316.646-.975 1.055-1.695 1.051zM109.939 6.856c-3.71 0-7.455.118-10.593.218-1.641.055-3.11.109-4.308.127-.48.001-.906.313-1.052.771l-.58 2.05c-.753 2.72-1.606 5.722-1.986 6.72-.517 1.415-.907 2.911-1.325 4.362-.172.617-.335 1.234-.517 1.814-.58 1.996-1.124 4-1.605 5.959-.263 1.007-.499 2.013-.734 3.02l-.055.245c-.1.426-.2.852-.29 1.279-.136.59-.245 1.188-.354 1.814-.054.299-.109.598-.172.907-.064.308-.136.707-.218 1.224l-.063.372c-.07.392.04.795.299 1.097.293.329.712.517 1.152.517h57.645c.368.03.72-.153.907-.471.147-.299.1-.657-.118-.907-.29-.481-.571-.97-.907-1.524l-1.17-1.932c-4.126-6.793-11.953-19.046-13.785-21.449-1.832-2.403-3.429-3.936-4.816-4.535-3.102-1.342-9.206-1.678-15.355-1.678z"/>
                </g>
                <path fill="#FFF" d="M144.076 243.822c-2.83.875-5.203 2.83-6.602 5.441-2.567 4.825-8.162 17.096-11.418 24.488h29.511c.876.01 1.652-.565 1.896-1.406l.181-.68c1.714-7.464 5.823-21.15 8.453-29.666.08-.273.02-.568-.163-.786-.182-.219-.461-.332-.744-.303-7.102.427-14.16 1.4-21.114 2.912z"/>
                <path fill="#3B3C40" fill-rule="nonzero" d="M155.567 274.286h-29.502c-.161-.002-.31-.084-.398-.22-.087-.134-.101-.304-.038-.451 2.767-6.258 8.716-19.445 11.437-24.551 1.445-2.739 3.922-4.789 6.884-5.696 6.977-1.5 14.06-2.462 21.186-2.875.451-.033.89.16 1.17.517.27.333.355.78.226 1.188-1.922 6.213-6.593 21.54-8.443 29.64l-.19.697c-.303 1.037-1.252 1.75-2.332 1.75zm-28.777-.961h28.777c.662.017 1.252-.416 1.433-1.053l.19-.68c1.815-8.099 6.53-23.453 8.454-29.684.034-.11.01-.23-.064-.317-.087-.105-.218-.162-.354-.154-7.07.408-14.098 1.36-21.023 2.847-2.71.837-4.978 2.716-6.303 5.224-2.612 4.916-8.208 17.35-11.11 23.817z"/>
                <path fill="#FFF" d="M137.157 246.134c-1.878 2.875-3.819 6.122-4.345 7.102-2.603 4.843-7.101 14.266-9.976 20.57h-4.471c-1.209.001-2.412-.166-3.574-.5l-1.505-.426c-.414-.029-.785-.264-.989-.626-.236-.42-.236-.931 0-1.351 3.102-4.535 15.718-18.638 23.835-24.08.326-.253.68-.48 1.025-.689z"/>
                <path fill="#3B3C40" fill-rule="nonzero" d="M122.8 274.286h-4.472c-1.25-.004-2.496-.178-3.7-.517l-1.46-.417c-.553-.055-1.044-.377-1.315-.862-.324-.561-.324-1.253 0-1.814 2.957-4.353 15.708-18.683 23.988-24.242.372-.254.735-.49 1.089-.699.19-.13.446-.102.605.064.16.166.176.423.039.608-1.932 2.947-3.846 6.167-4.326 7.065-2.504 4.661-6.938 13.912-9.977 20.542-.081.183-.272.293-.471.272zm12.697-26.492c-8.163 5.85-20.07 19.245-22.882 23.372-.142.266-.142.586 0 .853.127.225.358.371.616.39h.091l1.497.426c1.12.322 2.28.484 3.446.48h4.163c3.065-6.611 7.419-15.699 9.895-20.315.507-.816 1.804-2.984 3.201-5.206h-.027zM240.81 268.754c-2.254-2.873-5.745-4.497-9.395-4.372-1.758.024-3.5.33-5.16.907.47.735.906 1.397 1.278 1.995 1.261-.37 2.568-.559 3.882-.562 4.316-.254 8.187 2.637 9.169 6.847h2.349c-.33-1.746-1.056-3.394-2.122-4.815zm-21.321.272c-1.7 1.375-3.196 2.984-4.444 4.78h2.838c1.098-1.36 2.36-2.578 3.755-3.629-.345-.58-.735-1.242-1.17-1.95-.332.273-.662.539-.989.799h.01z"/>
                <path fill="#3B3C40" fill-rule="nonzero" d="M520.819 306.899H521.819V317.701H520.819z" transform="rotate(-180 521.31 312.3)"/>
                <path fill="#ADD9B4" fill-rule="nonzero" d="M510.19 285.95c.408 12.07 5.66 21.766 11.174 21.766 5.514 0 10.765-9.74 11.173-21.767.726-12.098-5.895-55.668-11.355-55.604-5.46.063-11.717 43.55-10.992 55.604z"/>
                <path fill="#3B3C40" fill-rule="nonzero" d="M521.364 307.942c-5.75 0-10.947-10.067-11.355-21.993-.662-10.974 4.625-49.61 9.849-55.096.326-.4.801-.65 1.315-.69.515.044.99.296 1.315.699 5.351 5.614 10.883 44.204 10.203 55.096-.372 11.908-5.577 21.984-11.327 21.984zm0-.371c5.56 0 10.593-9.904 10.992-21.63.326-5.443-.907-17.668-2.884-29.613-2.277-13.431-4.98-22.854-7.256-25.212-.264-.332-.649-.544-1.07-.59-.416.04-.797.25-1.052.58-5.179 5.442-10.403 43.896-9.75 54.825.4 11.727 5.442 21.63 10.992 21.63l.028.01z"/>
                <path fill="#3B3C40" fill-rule="nonzero" d="M484.905 307.035H485.905V317.692H484.905z" transform="rotate(-180 485.217 312.364)"/>
                <path fill="#ADD9B4" fill-rule="nonzero" d="M478.13 294.166c.263 7.7 3.627 13.912 7.128 13.912 3.501 0 6.866-6.212 7.129-13.912.462-7.718-3.764-35.507-7.256-35.47-3.491.036-7.464 27.752-7.001 35.47z"/>
                <path fill="#3B3C40" fill-rule="nonzero" d="M485.258 308.26c-3.7 0-7.047-6.448-7.31-14.085-.417-7.01 2.957-31.697 6.349-35.198.222-.277.552-.445.907-.463.353.022.682.19.907.463 3.419 3.627 6.947 28.242 6.53 35.198-.336 7.637-3.682 14.085-7.383 14.085zm-.118-49.383c-.247.024-.473.149-.625.345-1.415 1.487-3.093 7.49-4.472 16.052-1.233 7.592-1.94 15.355-1.732 18.883.254 7.446 3.437 13.74 6.947 13.74 3.51 0 6.693-6.294 6.947-13.74.4-6.739-3.147-31.48-6.43-34.926-.15-.2-.377-.327-.626-.354h-.009zM375.537 331.623L378.521 355.366 372.036 360.155 385.613 360.717 384.543 355.475 383.962 330.407z"/>
                <path fill="#3B3C40" fill-rule="nonzero" d="M386.356 365.007l-1.16-7.863s-.427 2.113-4.073 2.113c-3.645 0-4.38-2.43-4.716-2.322-.335.11-21.657 7.954-21.657 7.954l4.852.082 23.054 1.542 3.7-1.506z"/>
                <path fill="#3B3C40" fill-rule="nonzero" d="M354.75 364.996L386.321 364.996 386.321 366.837 354.75 366.837z" transform="rotate(.08 370.536 365.917)"/>
                <path fill="#FFF" fill-rule="nonzero" d="M366.504 359.438L367.03 361.153 367.918 360.808 367.211 359.239zM369.143 358.631L369.66 360.345 370.549 360.001 369.85 358.432zM371.773 357.824L372.299 359.538 373.188 359.203 372.48 357.625zM374.403 357.017L374.929 358.74 375.818 358.396 375.11 356.817z"/>
                <path fill="#244479" fill-rule="nonzero" d="M389.35 352.945s-4.037-41.973-5.887-57.809c-2.285-38.263 3.936-51.586-1.079-66.206-4.317-12.561-18.538-3.356-20.451 4.48-4.327 17.667 1.088 46.653 3.074 59.323.055.69.227 1.86.499 3.41.063.508.118.97.145 1.342.085.97.298 1.925.635 2.84 3.328 16.995 11.899 54.198 11.899 54.198l11.164-1.578z"/>
                <path fill="#3B3C40" fill-rule="nonzero" d="M377.84 355.058l-.1-.408c-.081-.372-8.615-37.402-11.899-54.208-.338-.933-.554-1.905-.643-2.893 0-.363-.082-.825-.136-1.324-.29-1.615-.454-2.721-.508-3.428-.173-1.098-.372-2.359-.599-3.728-2.24-13.822-6.421-39.56-2.458-55.74 1.315-5.442 7.7-10.748 13.124-11.002 3.763-.181 6.693 2.132 8.162 6.485 2.72 7.781 2.204 15.055 1.478 26.056-1.044 13.39-1.168 26.835-.371 40.241 1.813 15.636 5.84 57.373 5.877 57.79v.436l-11.927 1.723zm-2.82-131.833h-.363c-4.98.227-11.065 5.333-12.28 10.312-3.918 15.998.245 41.62 2.476 55.378.227 1.37.426 2.63.608 3.764.054.68.217 1.814.49 3.41.072.535.126.997.153 1.378.084.93.288 1.844.608 2.721 3.12 15.908 10.883 49.746 11.79 53.845l10.312-1.487c-.435-4.535-4.108-42.572-5.84-57.364-.8-13.452-.673-26.943.38-40.377.708-10.883 1.18-18.139-1.432-25.712-1.288-3.836-3.683-5.868-6.902-5.868zM391.181 336.792L395.335 360.599 400.967 360.055 399.897 337.082z"/>
                <path fill="#3B3C40" fill-rule="nonzero" d="M394.483 356.972L402.545 356.999 408.957 365.361 393.594 365.479z"/>
                <path fill="#3B3C40" fill-rule="nonzero" d="M393.585 364.98H408.95799999999997V366.848H393.585z"/>
                <path fill="#FFF" fill-rule="nonzero" d="M396.46 358.35L401.847 358.269 401.403 357.761 396.324 357.951zM397.04 360.899L402.418 360.817 401.974 360.309 396.895 360.5zM401.711 359.565L396.324 359.484 396.768 358.976 401.847 359.166z"/>
                <path fill="#3B3C40" fill-rule="nonzero" d="M393.612 364.98c0-1.923 1.605-3.383 6.83-3.338 5.223.046 8.543.98 8.543 3.338s-8.163.907-8.163.907l-7.21-.907z"/>
                <path fill="#244479" fill-rule="nonzero" d="M404.414 291.128c-2.204-31.625.417-48.893-5.76-63.078-5.296-12.171-20.106-1.977-20.025 6.086.118 12.352 5.351 43.324 7.764 57.509 0 8.489 5.967 61.59 5.967 61.59l11.228 1.134s.907-42.88.844-58.843c.08-1.465.074-2.934-.018-4.398z"/>
                <path fill="#3B3C40" fill-rule="nonzero" d="M404.069 354.868l-12.117-1.161-.045-.363c-.064-.535-5.977-53.228-5.968-61.672-2.285-13.377-7.636-44.894-7.763-57.5-.055-4.934 5.242-10.738 10.883-11.944 2.576-.554 7.301-.545 9.976 5.668 4.127 9.486 4.363 20.479 4.69 35.706.172 7.9.362 16.86 1.106 27.517.108 1.47.126 2.944.054 4.416 0 15.763-.834 58.407-.843 58.834l.027.499zm-11.3-2.014l10.411 1.016c.1-4.807.907-43.488.835-58.344.072-1.444.053-2.892-.055-4.335-.744-10.674-.907-19.644-1.106-27.562-.327-15.118-.563-26.047-4.617-35.37-1.813-4.172-4.997-5.995-8.978-5.152-5.179 1.107-10.222 6.585-10.176 11.056.118 12.534 5.441 43.996 7.754 57.436 0 8.081 5.406 56.548 5.932 61.255z"/>
                <path fill="#E8987D" fill-rule="nonzero" d="M419.859 201.196c-.526-6.585-7.936-27.073-13.214-36.777-5.279-9.704-17.123-3.074-15.835 7.047 1.287 10.122 10.52 15.726 14.692 24.587 1.18 2.62 2.559 5.147 4.127 7.555-2.068 3.764-3.819 10.883-5.678 18.347-.662 2.667-1.333 5.379-2.04 7.982-.844 3.233-1.855 6.42-3.03 9.55 0 0-2.222 8.906 5.324-.69 6.349-8.08 13.504-25.394 15.119-32.65.594-1.578.778-3.282.535-4.951z"/>
                <path fill="#3B3C40" fill-rule="nonzero" d="M399.362 243.713c-.17-.004-.337-.044-.49-.118-1.224-.599-.644-3.383-.435-4.217 1.181-3.13 2.192-6.32 3.03-9.56.734-2.72 1.46-5.622 2.049-7.971l.081-.336c1.814-7.255 3.501-14.067 5.496-17.876-1.516-2.362-2.855-4.832-4.008-7.391-1.633-3.483-4.118-6.512-6.521-9.45-3.628-4.454-7.419-9.07-8.163-15.273-.761-6.04 2.984-10.639 6.893-11.9 3.91-1.26 7.546.454 9.786 4.58 5.442 9.977 12.743 30.338 13.278 36.958.234 1.74.044 3.51-.554 5.16-1.66 7.41-8.915 24.76-15.2 32.76-3.01 3.781-4.426 4.634-5.242 4.634zm.317-83.584c-.73.005-1.456.124-2.149.354-3.564 1.152-6.974 5.37-6.267 10.929.753 5.95 4.272 10.257 8 14.81 2.439 2.975 4.96 6.05 6.647 9.64 1.163 2.6 2.531 5.101 4.09 7.483.09.148.09.333 0 .48-2.004 3.628-3.727 10.576-5.55 17.904l-.082.335c-.59 2.35-1.315 5.279-2.05 7.99-.842 3.25-1.857 6.453-3.038 9.596-.362 1.442-.38 2.956 0 3.129.091.045.989.308 4.58-4.263 6.222-7.917 13.414-25.14 15.037-32.441-.005-.03-.005-.06 0-.09.548-1.521.716-3.153.49-4.753-.517-6.394-7.89-26.918-13.16-36.595-1.578-2.92-3.936-4.508-6.548-4.508z"/>
                <path fill="#E8987D" fill-rule="nonzero" d="M359.148 168.528c-6.03 8.226-3.192 18.646-6.267 27.942-.335 1.007-.635 1.95-.907 2.866-7.41-3.183-18.637-5.441-28.74-9.069 0 0-12.108-2.059-.445 5.17 9.45 5.858 22.356 15.653 30.183 17.35.22.12.448.23.68.326 0 0 1.052 1.115 3.265-.336 1.905-.542 3.356-2.09 3.773-4.027 4.417-6.602 12.144-24.541 14.792-34.463 2.839-10.648-10.303-13.985-16.334-5.76z"/>
                <path fill="#3B3C40" fill-rule="nonzero" d="M354.831 214.038c-.517.012-1.023-.155-1.433-.472l-.59-.28c-5.894-1.307-14.284-6.885-22.4-12.28-2.794-1.86-5.442-3.629-7.864-5.116-5.178-3.21-5.514-4.535-5.224-5.26.58-1.542 4.725-.962 5.977-.753 4.589 1.614 9.296 2.948 13.858 4.235 4.918 1.278 9.763 2.825 14.511 4.635.227-.771.48-1.56.753-2.385 1.215-3.628 1.496-7.564 1.814-11.346.426-5.741.861-11.682 4.534-16.724 3.628-4.907 9.478-5.669 13.196-3.891 3.719 1.778 5.152 5.523 3.946 10.067-2.612 9.777-10.34 27.78-14.81 34.518-.466 2.041-1.994 3.673-4 4.272-.664.475-1.452.746-2.268.78zm-34.581-23.58c-1.134 0-1.968.145-2.077.435 0 .1-.209 1.034 4.843 4.172 2.449 1.514 5.097 3.265 7.89 5.124 7.7 5.124 16.434 10.883 22.157 12.162l.118.045c.202.113.41.213.625.3.061.025.117.062.164.108 0 0 .861.808 2.72-.39.032-.027.069-.045.11-.054 1.742-.494 3.072-1.905 3.464-3.673.01-.061.031-.12.063-.172 4.426-6.621 12.135-24.597 14.738-34.337 1.088-4.09-.209-7.455-3.464-9.015-3.256-1.56-8.752-.907-12.063 3.628-3.555 4.834-3.963 10.384-4.39 16.252-.29 3.836-.58 7.8-1.813 11.563-.327.998-.626 1.941-.907 2.848-.033.124-.12.227-.236.281-.119.05-.253.05-.372 0-4.873-1.878-9.856-3.462-14.919-4.743-4.535-1.288-9.287-2.63-13.83-4.226-.931-.178-1.875-.28-2.821-.309z"/>
                <path fill="#E5E9F4" fill-rule="nonzero" d="M361.87 235.65h37.692c.67-.168 1.37-.168 2.04 0h.97l-2.276-25.458 1.905-19.671 3.627 6.348 14.883-2.24c-2.022-5.07-8.353-28.768-10.538-32.142-.874-1.417-1.963-2.69-3.229-3.772-.275-.29-.579-.552-.907-.78-3.873-2.622-11.164-3.918-16.978-4.444-1.397-.127-2.72-.21-3.845-.254-4.852-.182-15.037.861-19.21 2.974-.19.1-.38.218-.562.336-2.56.677-4.77 2.297-6.185 4.535-2.394 3.727-8.47 27.208-8.725 31.362l11.029 2.457c-.517 10.54-1.578 26.918-2.304 37.956-.045.722.21 1.43.704 1.96.494.528 1.184.83 1.908.833z"/>
                <path fill="#3B3C40" fill-rule="nonzero" d="M402.573 236.13h-1.08c-.595-.153-1.219-.153-1.814 0h-37.81c-.862 0-1.684-.357-2.274-.986-.589-.628-.892-1.473-.837-2.332.762-11.446 1.769-27.209 2.286-37.539l-10.63-2.376c-.229-.053-.386-.264-.371-.499.254-4.271 6.348-27.788 8.797-31.58 1.46-2.3 3.722-3.974 6.348-4.697.182-.115.363-.224.545-.327 4.226-2.14 14.338-3.229 19.444-3.02 1.225.045 2.53.136 3.864.254 4.535.408 12.815 1.533 17.232 4.535.366.246.703.532 1.007.852 1.304 1.09 2.427 2.378 3.328 3.818 1.36 2.095 4.2 11.564 6.702 19.953 1.587 5.297 3.093 10.312 3.882 12.29.064.131.064.285 0 .416-.071.125-.194.212-.336.236l-14.882 2.24c-.194.032-.387-.063-.481-.236l-2.93-5.042-1.759 18.193 2.267 25.394c.018.133-.026.266-.118.363-.107.084-.246.117-.38.09zm-.907-.951h.38l-2.221-24.95 1.95-19.772c.013-.215.169-.396.38-.44.212-.045.427.058.526.25l3.51 6.04 13.967-2.095c-.825-2.267-2.167-6.73-3.691-11.79-2.358-7.89-5.306-17.704-6.585-19.68-.864-1.367-1.935-2.59-3.174-3.628-.275-.285-.579-.54-.907-.762-4.371-2.966-13.169-4.036-16.75-4.354-1.325-.127-2.613-.208-3.82-.254-4.888-.19-14.946.907-18.972 2.92-.176.093-.346.196-.508.31-.045.028-.094.05-.145.063-2.442.643-4.552 2.18-5.914 4.308-2.24 3.491-8.053 25.693-8.606 30.727l10.62 2.376c.228.049.386.257.372.49-.517 10.348-1.542 26.355-2.313 37.955-.039.595.171 1.18.58 1.614.405.443.979.693 1.579.69h37.628c.694-.17 1.417-.176 2.114-.018z"/>
                <path fill="#E8987D" fill-rule="nonzero" d="M403.951 221.955c-.662 2.667-1.333 5.379-2.04 7.982-.644 2.348-1.307 4.625-2.005 6.71"/>
                <path fill="#3B3C40" fill-rule="nonzero" d="M399.906 237.101h-.145c-.234-.081-.36-.336-.281-.571.626-1.877 1.279-4.063 1.986-6.684.708-2.621 1.46-5.623 2.05-7.972.028-.119.102-.22.206-.284.104-.063.23-.082.347-.052.24.067.384.311.327.553-.59 2.35-1.316 5.279-2.05 7.99-.735 2.712-1.37 4.844-2.005 6.74-.076.171-.247.282-.435.28z"/>
                <rect width="8.698" height="14.493" x="363.882" y="234.807" fill="#FFF" fill-rule="nonzero" rx=".87"/>
                <path fill="#3B3C40" fill-rule="nonzero" d="M371.791 249.771h-7.11c-.338.003-.662-.13-.9-.369-.24-.239-.373-.563-.37-.9v-12.906c0-.701.568-1.27 1.27-1.27h7.11c.701 0 1.27.569 1.27 1.27v12.906c0 .336-.134.66-.372.897-.238.239-.561.372-.898.372zm-7.11-14.51c-.085 0-.165.033-.225.092-.06.06-.093.14-.093.225v12.924c0 .175.142.317.318.317h7.11c.084 0 .165-.033.224-.093.06-.06.093-.14.093-.224v-12.906c0-.175-.142-.318-.317-.318l-7.11-.018z"/>
                <circle cx="368.2" cy="239.994" r="2.757" fill="#EFEEEE" fill-rule="nonzero"/>
                <path fill="#EFEEEE" fill-rule="nonzero" d="M370.72 245.01h-5.042c-.126.002-.249-.046-.34-.135-.09-.089-.14-.21-.14-.337 0-.265.215-.48.48-.48h5.043c.126 0 .248.05.337.14.088.091.137.214.134.34 0 .26-.21.472-.471.472zM370.72 246.887h-5.042c-.126.003-.249-.046-.34-.135-.09-.088-.14-.21-.14-.336 0-.266.215-.481.48-.481h5.043c.126 0 .248.05.337.141.088.09.137.213.134.34 0 .26-.21.471-.471.471z"/>
                <path fill="#3B3C40" fill-rule="nonzero" d="M369.243 124.07c0 2.674 2.168 4.842 4.843 4.842 2.674 0 4.843-2.168 4.843-4.843 0-2.674-2.169-4.843-4.843-4.843-2.675 0-4.843 2.169-4.843 4.843z"/>
                <path fill="#E8987D" fill-rule="nonzero" d="M378.929 127.706L391.018 123.435 391.018 153.563 378.929 153.563z"/>
                <path fill="#3B3C40" fill-rule="nonzero" d="M391.018 154.017h-12.09c-.25 0-.453-.203-.453-.454v-25.857c0-.19.12-.361.3-.426l12.116-4.272c.137-.046.288-.026.408.055.122.084.193.224.19.372v30.128c0 .124-.05.242-.138.327-.09.086-.21.132-.333.127zm-11.636-.907h11.183v-29.022l-11.183 3.945v25.077z"/>
                <path fill="#E8987D" fill-rule="nonzero" d="M388.034 117.902c-9.07-4.652-13.377-.798-15.218 6.684-1.841 7.483-1.977 21.277 2.884 22.846 4.861 1.57 14.928-2.458 16.642-10.067 1.714-7.61.817-16.833-4.308-19.463z"/>
                <path fill="#3B3C40" fill-rule="nonzero" d="M378.067 148.221c-.85.011-1.698-.108-2.512-.353-5.342-1.733-4.907-16.325-3.184-23.39 1.08-4.381 2.939-7.202 5.542-8.39 2.603-1.188 6.14-.734 10.33 1.415 5.306 2.721 6.303 12.099 4.535 19.953-.762 3.392-3.193 6.412-6.848 8.498-2.39 1.4-5.094 2.18-7.863 2.267zm3.038-31.879c-.97-.013-1.932.182-2.82.572-2.331 1.06-4.027 3.682-5.034 7.772-.998 4.427-1.353 8.976-1.052 13.504.381 5.043 1.669 8.163 3.628 8.816 2.458.798 6.348.063 9.65-1.814 3.301-1.877 5.704-4.761 6.412-7.908 1.687-7.519.825-16.443-4.072-18.956-2.05-1.178-4.35-1.859-6.712-1.986z"/>
                <path fill="#3B3C40" fill-rule="nonzero" d="M396.17 135.034c.692 1.329.728 2.904.095 4.261-.633 1.358-1.862 2.344-3.324 2.668-.643.102-1.301.04-1.914-.181-.025-2.442.243-4.878.798-7.256.339-1.367.497-2.772.472-4.18-.1-2.096-1.27-3.193-3.03-2.359-.85.536-1.364 1.472-1.36 2.476-.043.35-.068.7-.072 1.052-.09 3.392 1.052 8.272.453 11.002-.78 3.627-5.206 7.754-9.432 6.24l-1.215-11.446c2.92.734 4.68 2.303 7.001 1.233 1.306-.607 1.76-3.201 1.814-6.158v-.998c0-1.06-.054-2.14-.127-3.174-.222-3.444-3.106-6.109-6.557-6.058-2.333.067-4.668-.003-6.992-.209-1.304-.058-2.43-.928-2.816-2.174-.387-1.246.05-2.6 1.092-3.385-.027-.18-.045-.362-.054-.545 0-2.65 2.138-4.805 4.789-4.824.453-1.005 1.366-1.727 2.448-1.936 1.082-.21 2.198.12 2.993.883.626-.298 1.311-.453 2.005-.453 1.006.002 1.986.319 2.802.907 1.338-1.304 3.31-1.717 5.059-1.058 1.748.659 2.958 2.27 3.103 4.132 2.173.517 3.707 2.456 3.71 4.69-.003.751-.186 1.492-.535 2.158 1.96 1.606 2.327 4.463.834 6.512 1.28 1.201 1.803 3.004 1.365 4.704-.438 1.7-1.768 3.025-3.469 3.458l.064.018z"/>
                <path fill="#E8987D" fill-rule="nonzero" d="M399.734 237.138c-.678-.247-1.436-.127-2.005.317l-6.765 5.242c-.282.214-.353.608-.164.907.472.662 2.068.48 2.866-.3l.771-.734c.484-.482 1.094-.819 1.76-.97 1.016 1.66 4.362 6.938 5.532 6.14s.626-4.535 1.215-7.455"/>
                <path fill="#3B3C40" fill-rule="nonzero" d="M401.457 248.32h-.245c-1.36-.29-3.555-3.428-5.224-6.122-.464.16-.886.424-1.233.771l-.771.744c-.65.588-1.512.883-2.385.816-.458-.014-.887-.23-1.17-.59-.361-.513-.24-1.222.272-1.586l6.747-5.234c.695-.535 1.615-.679 2.44-.38.115.038.208.122.26.232.051.11.056.235.012.348-.085.235-.345.357-.58.272-.533-.195-1.13-.103-1.578.245l-6.766 5.224c-.054.036-.093.091-.109.154-.008.061.008.123.045.172.133.138.317.214.508.209.61.045 1.211-.158 1.669-.562l.78-.744c.541-.55 1.232-.927 1.986-1.088.185-.033.371.05.472.208 2.938 4.816 4.534 6.104 4.88 5.995.57-.39.634-2.004.697-3.564.018-1.216.13-2.43.336-3.628.059-.244.298-.4.544-.354.118.024.22.095.285.195.065.101.087.224.06.34-.194 1.143-.3 2.298-.318 3.456-.072 1.95-.145 3.628-1.088 4.28-.15.118-.335.185-.526.191z"/>
                <path fill="#E8987D" fill-rule="nonzero" d="M404.16 222.962c-1.27 5.115-2.63 10.312-4.136 14.656l2.72.844 5.842-10.557-4.426-4.943zM323.224 190.303c.489.597.686 1.38.54 2.138-.148.757-.625 1.41-1.301 1.78l-.254.136c-.858.476-1.911.427-2.721-.127l-2.53-1.26c-.897-.398-1.902-.475-2.848-.218l-1.28.29c-1.341.318-3.146-.49-3.228-1.496-.036-.463.308-.869.771-.907l10.484-1.27c.898-.122 1.795.232 2.367.934z"/>
                <path fill="#3B3C40" fill-rule="nonzero" d="M320.966 195.128c-.604 0-1.194-.18-1.696-.517l-2.476-1.233c-.8-.354-1.697-.418-2.54-.182l-1.287.29c-1.026.209-2.092-.014-2.948-.616-.455-.285-.76-.756-.834-1.288-.052-.712.477-1.334 1.188-1.397l10.466-1.27c1.035-.121 2.06.292 2.72 1.098.573.702.806 1.622.636 2.512-.172.89-.735 1.656-1.533 2.086l-.254.145c-.443.239-.938.366-1.442.372zm-5.614-2.975c.63-.005 1.25.138 1.814.418l2.53 1.251c.67.468 1.546.52 2.268.136l.254-.136c.557-.308.948-.847 1.07-1.473.12-.625-.043-1.271-.445-1.765-.467-.567-1.192-.858-1.922-.77l-10.484 1.27c-.11.01-.21.062-.282.144-.066.078-.1.18-.09.281.06.262.223.488.453.626.646.446 1.442.615 2.213.472l1.288-.29c.436-.107.884-.162 1.333-.164z"/>
                <path fill="#E8987D" fill-rule="nonzero" d="M313.52 198.91c.366-.454.297-1.118-.154-1.487l-4.934-4.027c-.455-.361-1.116-.293-1.487.154-.368.452-.304 1.116.145 1.487l4.943 4.018c.451.368 1.115.304 1.487-.145z"/>
                <path fill="#3B3C40" fill-rule="nonzero" d="M312.695 199.754c-.332-.013-.65-.134-.907-.345l-4.934-4.018c-.31-.252-.506-.618-.544-1.016-.047-.398.071-.797.326-1.106.254-.312.621-.51 1.021-.55.4-.041.8.078 1.11.332l4.934 4.018c.31.253.506.62.545 1.018.04.398-.082.795-.336 1.104-.294.369-.744.577-1.215.563zm-4.925-6.14c-.172.001-.335.075-.45.202-.116.128-.173.297-.158.469.017.156.095.3.218.399l4.934 4.027c.262.204.64.164.852-.091.1-.125.146-.285.127-.445-.01-.156-.086-.3-.208-.399l-4.943-4.026c-.105-.087-.236-.135-.372-.136z"/>
                <path fill="#E8987D" fill-rule="nonzero" d="M312.504 198.42c.144-.563-.191-1.137-.752-1.288l-6.113-1.623c-.565-.144-1.142.19-1.297.753-.144.563.191 1.137.753 1.288l6.158 1.623c.55.117 1.097-.212 1.251-.753z"/>
                <path fill="#3B3C40" fill-rule="nonzero" d="M311.48 199.663c-.132 0-.264-.019-.39-.055l-6.159-1.614c-.384-.105-.71-.36-.907-.707-.208-.343-.263-.757-.154-1.143.21-.794 1.018-1.271 1.814-1.07l6.167 1.614c.385.106.711.36.907.708.2.346.255.756.154 1.142-.173.653-.758 1.111-1.433 1.125zm-6.159-3.764c-.218-.005-.421.11-.53.298-.11.189-.108.422.004.609.081.136.211.237.363.281l6.167 1.624c.323.08.65-.114.735-.436.043-.153.02-.318-.064-.453-.08-.137-.21-.237-.362-.281l-6.158-1.624-.155-.018z"/>
                <path fill="#E8987D" fill-rule="nonzero" d="M322.154 189.55c.606.052 1.195.225 1.732.508 2.612 1.306 2.25 3.12 1.705 4.163-.237.484-.63.873-1.115 1.107l-7.79 3.809c-.286.137-.593.222-.908.254l-11.318 1.342c-.133.019-.268-.022-.37-.11-.1-.09-.158-.218-.156-.352.021-.868.624-1.613 1.469-1.814l7.256-1.714c.905-.22 1.731-.687 2.385-1.352l2.476-2.512c.35-.747.822-1.43 1.396-2.023"/>
                <path fill="#3B3C40" fill-rule="nonzero" d="M304.469 201.196c-.228.001-.448-.083-.617-.236-.2-.176-.313-.432-.308-.699.007-1.088.756-2.03 1.814-2.285l7.255-1.714c.824-.195 1.576-.62 2.168-1.225l2.421-2.448c.37-.773.863-1.48 1.46-2.095.178-.178.467-.178.644 0 .178.178.178.466 0 .644-.532.555-.973 1.192-1.306 1.886-.02.052-.05.098-.09.136l-2.476 2.512c-.716.725-1.621 1.234-2.612 1.47l-7.256 1.714c-.657.155-1.121.74-1.124 1.415l11.336-1.325c.252-.035.497-.108.726-.217l7.79-3.81c.395-.193.714-.512.907-.906.753-1.515.236-2.721-1.523-3.628-.49-.248-1.022-.405-1.57-.463-.119-.007-.23-.062-.31-.152-.078-.09-.116-.209-.106-.328.024-.249.24-.433.49-.418.66.061 1.304.25 1.895.554 3.12 1.56 2.403 3.89 1.94 4.816-.284.572-.75 1.034-1.323 1.315l-7.791 3.809c-.323.154-.67.255-1.025.299l-11.31 1.342-.1.037z"/>
                <path fill="#CA5858" fill-rule="nonzero" d="M382.62 160.882l-3.147-.118c-3.773 7.618-8.643 29.93-9.305 51.45l4.652 6.676 4.789-5.142c-2.775-19.01.68-43.543 3.01-52.866z"/>
                <path fill="#3B3C40" fill-rule="nonzero" d="M374.82 219.37c-.142-.008-.273-.081-.354-.199l-4.652-6.684c-.06-.085-.088-.187-.082-.29.635-20.86 5.351-43.533 9.35-51.696.075-.175.255-.282.445-.263l3.156.127c.142.002.274.073.354.19.089.113.12.261.082.4-2.204 8.806-5.841 33.257-3.002 52.684.024.141-.02.286-.118.39l-4.798 5.142c-.087.124-.23.198-.38.2zm-4.172-7.3l4.227 6.067 4.226-4.534c-2.72-19.128.698-42.98 2.92-52.258l-2.249-.091c-3.918 8.199-8.47 30.328-9.124 50.816z"/>
                <path fill="#CA5858" fill-rule="nonzero" d="M378.248 154.96L379.409 161.136 382.475 161.78 385.631 155.05 381.958 153.781z"/>
                <path fill="#3B3C40" fill-rule="nonzero" d="M382.475 162.26h-.1l-3.065-.652c-.191-.039-.339-.19-.372-.381l-1.152-6.167c-.044-.236.09-.468.317-.545l3.71-1.179c.096-.036.203-.036.299 0l3.682 1.28c.127.043.23.138.281.262.054.125.054.266 0 .39l-3.156 6.73c-.084.166-.258.269-.444.263zm-2.658-1.532l2.386.508 2.775-5.904-3.03-1.052-3.146 1.006 1.015 5.442z"/>
                <path fill="#E5E9F4" fill-rule="nonzero" d="M373.151 154.38l3.41-4.037c1.285 2.096 3.79 3.103 6.168 2.476 3.133-.858 6.212-1.9 9.223-3.12l2.34 3.465-6.548 7.818-5.723-6.612-8.443 6.349-.427-6.34z"/>
                <path fill="#3B3C40" fill-rule="nonzero" d="M387.744 161.435c-.136-.002-.264-.061-.354-.163l-5.441-6.276-8.09 6.122c-.139.103-.323.124-.48.054-.164-.072-.273-.23-.282-.408l-.435-6.348c-.008-.126.035-.25.118-.345l3.41-4.036c.101-.117.253-.178.408-.163.156.009.297.098.372.236 1.17 1.916 3.463 2.832 5.632 2.249 3.11-.858 6.168-1.894 9.16-3.102.207-.082.444-.01.571.172l2.34 3.474c.126.17.126.402 0 .571l-6.539 7.818c-.09.108-.222.17-.363.173l-.027-.028zm-5.723-7.564c.14-.001.272.058.363.164l5.36 6.185 5.95-7.11-1.896-2.83c-2.913 1.174-5.893 2.176-8.924 3.002-2.359.65-4.875-.206-6.349-2.159l-2.866 3.42.354 5.305 7.745-5.859c.076-.057.168-.088.263-.09v-.028z"/>
                <path fill="#BBC6E3" fill-rule="nonzero" d="M379.192 132.041c-1.607-1.096-3.754-.958-5.206.336l-2.331 1.814c-.136 6.194.907 12.27 4.045 13.277 3.455 1.125 9.568-.598 13.404-4.434-2.63-10.62-7.5-9.405-9.912-10.993z"/>
                <path fill="#3B3C40" fill-rule="nonzero" d="M378.13 148.257c-.872.013-1.742-.112-2.575-.371-4.19-1.352-4.462-10.058-4.38-13.74.001-.147.072-.285.19-.372l2.33-1.814c1.612-1.417 3.978-1.563 5.75-.354.572.325 1.181.577 1.814.753 2.612.843 6.195 2.013 8.308 10.484.038.163-.01.334-.127.454-3.027 2.994-7.056 4.76-11.31 4.96zm-6.003-13.858c-.118 6.984 1.297 11.79 3.718 12.58 3.075.997 8.879-.427 12.697-4.127-1.986-7.727-5.097-8.734-7.609-9.55-.715-.197-1.401-.486-2.04-.862-1.445-.968-3.362-.837-4.662.318l-2.104 1.641z"/>
                <path fill="#3B3C40" fill-rule="nonzero" d="M387.49 130.445l-4.471 2.875c-.192.127-.249.385-.127.58.078.121.21.196.354.2.081.004.162-.022.226-.072l4.018-2.585v-.998z"/>
                <path fill="#FFF" fill-rule="nonzero" d="M471.89 95.628h5.07c.026-1.422.828-2.715 2.09-3.371 1.26-.656 2.78-.57 3.96.224.83-1.71 2.56-2.797 4.461-2.803.482.001.962.072 1.424.209 1.397-2.637 4.304-4.108 7.257-3.672 2.952.436 5.31 2.684 5.885 5.613h.054c2.114.004 3.837 1.695 3.882 3.809h9.07"/>
                <path fill="#B0B3BF" fill-rule="nonzero" d="M515.042 95.845h-9.287v-.217c-.025-1.986-1.642-3.583-3.628-3.583h-.181l-.09-.181c-.57-2.819-2.848-4.977-5.693-5.396-2.845-.419-5.647.992-7.005 3.528l-.09.154-.173-.046c-.44-.134-.9-.2-1.36-.199-1.825.015-3.48 1.072-4.263 2.72l-.109.237-.217-.146c-1.106-.772-2.55-.867-3.747-.246-1.197.62-1.951 1.854-1.958 3.203v.218h-5.288v-.445h4.862c.165-2.138 1.945-3.792 4.09-3.8.73-.003 1.448.192 2.077.563.904-1.665 2.64-2.707 4.535-2.721.443 0 .885.054 1.315.163 1.474-2.606 4.398-4.038 7.36-3.607 2.963.432 5.356 2.639 6.026 5.557 2.093.08 3.795 1.713 3.963 3.8h8.861v.444z"/>
                <path fill="#FFF" fill-rule="nonzero" d="M22.048 63.73H32.16c.089-4.215 3.53-7.586 7.745-7.59 1.543-.004 3.05.458 4.326 1.324 2.121-4.392 7.12-6.592 11.79-5.188 2.785-5.264 8.584-8.202 14.476-7.334 5.891.869 10.596 5.354 11.744 11.198h.11c4.214.004 7.651 3.377 7.735 7.59h22.375"/>
                <path fill="#B0B3BF" fill-rule="nonzero" d="M112.46 63.948H89.788v-.217c-.103-4.084-3.433-7.346-7.518-7.365h-.29v-.181C80.85 50.432 76.22 46.015 70.42 45.16c-5.8-.854-11.507 2.04-14.245 7.224l-.09.163-.173-.054c-.903-.273-1.841-.41-2.784-.408-3.7.01-7.071 2.12-8.698 5.441l-.118.236-.209-.145c-1.24-.838-2.702-1.284-4.199-1.279-4.088.014-7.424 3.277-7.527 7.364v.218h-10.33v-.435h9.894c.144-2.825 1.773-5.362 4.282-6.667 2.508-1.306 5.521-1.185 7.917.318 1.74-3.36 5.203-5.478 8.988-5.496.919.002 1.834.127 2.72.372 2.863-5.255 8.699-8.167 14.62-7.294 5.92.873 10.666 5.345 11.89 11.203 4.215.056 7.662 3.373 7.882 7.582h22.22v.444z"/>
                <path fill="#FFF" fill-rule="nonzero" d="M106.112 132.413h5.07c.03-1.42.833-2.71 2.093-3.364 1.26-.654 2.778-.567 3.956.226.825-1.715 2.559-2.808 4.462-2.811.482 0 .962.071 1.424.208 1.393-2.64 4.3-4.113 7.253-3.677 2.953.436 5.31 2.688 5.88 5.618h.054c2.114-.005 3.842 1.686 3.882 3.8h9.07"/>
                <path fill="#B0B3BF" fill-rule="nonzero" d="M149.219 132.64h-9.287v-.227c-.03-1.991-1.637-3.598-3.628-3.628h-.181l-.091-.172c-.567-2.82-2.843-4.98-5.689-5.402-2.845-.42-5.65.99-7.008 3.525l-.082.163-.172-.054c-.441-.134-.9-.202-1.36-.2-1.826.013-3.483 1.07-4.263 2.72l-.118.228-.209-.145c-1.107-.774-2.552-.868-3.75-.245s-1.951 1.86-1.954 3.21v.218h-5.315v-.444h4.852c.1-1.417.928-2.681 2.186-3.34 1.258-.66 2.768-.622 3.99.102.906-1.663 2.642-2.705 4.535-2.721.444-.001.886.057 1.315.172 1.469-2.632 4.412-4.082 7.394-3.643 2.982.439 5.382 2.676 6.029 5.62 2.094.08 3.8 1.712 3.972 3.8h8.852l-.018.463z"/>
                <path fill="#3B3C40" fill-rule="nonzero" d="M149.527 348.51s-2.875 2.82-2.938 3.854c-.064 1.034-.254 12.126.907 13.17 1.16 1.042 4.625 1.768 3.519 2.929-.835.906-7.256.689-11.564.453-1.251-.063-2.82-10.067-3.31-11.545-.717-2.132-3.31-6.784-2.658-8.272.318-.725 2.721-2.376 4.825-3.763 1.722-1.322 3.215-2.918 4.417-4.726l6.802 7.9zM188.036 355.439s-2.231 6.348-2.54 7.255c-.427 1.703-.754 3.43-.979 5.17 0 3.954 17.758-3.356 13.776-5.106-.88-.678-1.456-1.675-1.605-2.775-.19-2.068 1.497-4.671 1.497-4.671l-10.15.127z"/>
                <path fill="#3B3C40" fill-rule="nonzero" d="M212.55 216.659l6.422 16.497s4.199 39.38 1.76 62.95c-1.026 9.85-23.137 62.625-23.137 62.625l-10.992-1.56 14.738-62.488-5.442-23.898-7.664-47.233 24.315-6.893z"/>
                <path fill="#3B3C40" fill-rule="nonzero" d="M182.295 217.52l-5.514 18.366-8.39 55.45-28.369 51.877s4.263 6.485 8.843 7.51l40.268-52.43 21.821-65.627-.762-14.583-27.897-.562z"/>
                <path fill="#E8987D" fill-rule="nonzero" d="M194.647 177.833c1.08-2.095 24.932-11.917 25.558-9.868.626 2.05 9.25 24.67 9.25 24.67l9.07-17.378c0-.526-.544-6.122-.816-7.038-.272-.916 1.66-3.764 2.957-4.072 1.297-.308-.263 1.814-.318 2.72-.054.908 1.542.5 1.542.5s4.807-10.33 5.142-10.639c.626-.571 1.352.209 1.406.735.055.526.907 6.095.762 6.83-.145.734-4.934 9.976-5.442 11.726 0 0-7.582 28.378-12.443 31.498-.883.9-2.214 1.191-3.392.744-9.07-3.537-18.628-33.104-22.546-35.262-6.295-3.51-14.103 11.4-10.73 4.834z"/>
                <path fill="#3B3C40" fill-rule="nonzero" d="M229.057 208.896c-.438.001-.872-.082-1.279-.245-5.714-2.231-11.473-14.212-16.09-23.835-2.638-5.496-5.132-10.684-6.52-11.454-.202-.106-.41-.197-.626-.272-2.64 1.098-5.221 2.33-7.736 3.69-.907.908-1.614 1.815-2.077 2.413-.571.717-.762.907-1.134.717-.371-.19-.39-.254.653-2.286.533-.643 1.198-1.163 1.95-1.523 2.15-2.25 5.26-4.753 8.28-3.982 6.204-2.621 13.27-5.052 15.237-4.88.635.055.853.354.907.59.535 1.814 7.256 19.4 8.88 23.699l8.56-16.37c-.18-2.132-.57-6.104-.78-6.803-.076-.708.108-1.42.518-2.004.635-1.107 1.768-2.403 2.775-2.64.317-.12.675-.038.907.21.363.435.063 1.115-.29 1.895-.171.333-.299.687-.381 1.052.072.136.408.145.77.082 2.186-4.707 4.826-10.276 5.152-10.584.313-.303.772-.399 1.18-.245.527.223.9.703.988 1.27 0 .117.063.48.127.979.351 1.971.56 3.966.625 5.968-.642 1.622-1.378 3.206-2.203 4.743-1.325 2.72-2.984 6.094-3.256 7.038-.309 1.152-7.637 28.405-12.589 31.743-.685.658-1.598 1.028-2.548 1.034zm-23.381-36.278c1.632.988 3.927 5.777 6.83 11.79 4.534 9.478 10.22 21.277 15.608 23.381 1.003.38 2.136.135 2.893-.626.022-.029.05-.053.081-.072 3.728-2.395 9.641-21.477 12.253-31.235.3-1.025 1.905-4.3 3.31-7.192.962-1.96 2.05-4.181 2.132-4.535.081-.49-.436-4.263-.635-5.678-.073-.526-.118-.906-.136-1.015-.045-.223-.193-.412-.4-.508-.072 0-.144 0-.244.063-.308.408-3.256 6.657-5.043 10.494-.053.119-.156.208-.28.244-.597.212-1.254.166-1.815-.126-.255-.198-.386-.515-.344-.835.078-.476.234-.935.462-1.36.1-.236.263-.59.336-.835-.9.51-1.634 1.27-2.113 2.186-.28.371-.433.823-.436 1.288.29.97.771 6.503.826 7.128.012.114-.02.228-.091.318l-9.07 17.304c-.089.155-.256.25-.435.245-.175-.013-.327-.126-.39-.29-.354-.907-8.462-22.184-9.242-24.633-.172 0-.907-.154-3.79.68-3.487 1.091-6.914 2.362-10.267 3.81v.009zm-3.138.354c-1.082.24-2.1.71-2.984 1.378.925-.462 1.923-.925 2.984-1.387v.009z"/>
                <path fill="#3B3C40" fill-rule="nonzero" d="M234.233 158.013h20.236c.558 0 1.01.452 1.01 1.01v.8c0 .558-.452 1.01-1.01 1.01h-20.236c-.558 0-1.01-.452-1.01-1.01v-.8c0-.558.452-1.01 1.01-1.01z" transform="rotate(-69.1 244.351 159.423)"/>
                <path fill="#3B3C40" fill-rule="nonzero" d="M152.312 367.256c-1.034-1.215-4.535-2.448-5.188-2.72-2.603-.907-8.661-19.336-8.661-19.336s-5.26 1.55-5.669 2.358c-.408.807 3.247 9.713 3.247 9.713.698 3.628 2.449 11.899 2.449 11.899h12.316c.961 0 2.64-.599 1.506-1.914zM183.791 369.94l.318-2.72 1.387-4.535s4.317 1.814 6.449 1.533c2.125-.396 4.229-.898 6.303-1.505 8.162 2.72 14.937 4.072 14.348 6.176 0 .09.227.98.172 1.07l-28.977-.018zM176.046 242.207l-20.26-.553c.71-10.5 1.99-20.955 3.835-31.316 2.848-15.98 8.308-38.092 18.203-54.118l-.3-3.237-.362.553c-10.73 16.406-16.525 39.751-19.5 56.448-1.934 10.777-3.245 21.658-3.927 32.586v1.016l22.547.617-.236-1.996z"/>
                <path fill="#3B3C40" fill-rule="nonzero" d="M176.237 244.683l-22.538-.616c-.13-.007-.253-.062-.345-.155-.081-.096-.126-.218-.126-.344l.054-1.016c.67-10.95 1.982-21.852 3.927-32.65 2.966-16.724 8.761-40.15 19.554-56.63l.362-.552c.116-.167.319-.249.517-.209.199.052.343.222.363.426l.3 3.247c.007.102-.019.204-.073.29-9.904 16.035-15.327 38.183-18.139 53.945-1.814 10.183-3.083 20.455-3.8 30.773l19.771.544c.239.007.436.189.463.426l.181 2.004c.01.134-.036.265-.127.363-.088.097-.213.153-.344.154zm-22.057-1.56l21.521.59-.1-1.034-19.834-.526c-.129-.001-.25-.058-.336-.154-.087-.097-.133-.224-.127-.354.716-10.519 2.003-20.991 3.855-31.37 2.811-15.79 8.244-37.993 18.139-54.136l-.154-1.723c-10.44 16.325-16.117 39.225-19.046 55.677-1.935 10.746-3.243 21.597-3.918 32.495v.535z"/>
                <path fill="#E5E9F4" fill-rule="nonzero" d="M215.308 210.283c0-2.131-.418-12.842-1.007-24.242l12.162-4.735s-5.215-19.2-14.511-26.636c-.647-.52-1.357-.955-2.113-1.297-1.733-1.28-4.317-2.195-8.117-3.02-5.623-1.207-17.468-.2-17.468-.2s-7.573 1.052-10.14 2.53l-2.63.3c-12.416 4.698-14.094 33.448-14.094 33.448l13.396 6.747s2.158-8.525 2.131-11.436c3.99 12.497 6.349 30.11 6.022 34.219-.408 5.35-2.158 12.143-3.265 16.043-.222.773-.08 1.605.386 2.26.466.655 1.206 1.062 2.009 1.105 8.09.48 30.7 1.143 41.147-1.814.484-.127.894-.449 1.132-.888.24-.44.286-.959.13-1.434-1.425-4.634-5.17-17.095-5.17-20.95z"/>
                <path fill="#3B3C40" fill-rule="nonzero" d="M193.033 236.249c-5.813 0-11.228-.19-15-.408-.946-.056-1.815-.54-2.359-1.315-.549-.774-.719-1.754-.462-2.667 1.043-3.628 2.838-10.566 3.256-15.944.29-3.854-1.814-19.599-5.297-31.743-.544 3.628-1.86 8.825-1.923 9.07-.036.14-.134.256-.266.316s-.284.057-.414-.008l-13.386-6.72c-.172-.084-.275-.263-.263-.454.378-5.077 1.182-10.113 2.403-15.055 2.657-10.475 6.693-16.806 11.999-18.81.039-.01.08-.01.118 0l1.306-.154 1.215-.136c2.721-1.488 9.913-2.494 10.221-2.54.517 0 12.017-1.006 17.64.209 3.982.862 6.53 1.814 8.263 3.075.777.349 1.505.797 2.167 1.333 9.314 7.446 14.457 26.092 14.674 26.89.062.235-.063.478-.29.563l-11.844 4.607c.562 10.82.988 21.703.988 23.925 0 3.846 3.945 16.87 5.152 20.77.195.602.133 1.258-.173 1.813-.301.551-.81.96-1.415 1.134-6.149 1.732-16.76 2.249-26.31 2.249zm-20.116-54.997c.21.001.397.136.463.336 3.963 12.452 6.348 30.237 6.03 34.4-.416 5.441-2.23 12.452-3.282 16.134-.165.622-.05 1.285.317 1.814.383.54.99.873 1.65.907 9.905.59 31.227.97 40.985-1.814.358-.095.66-.335.835-.662.18-.324.22-.707.109-1.061-1.57-5.034-5.197-17.177-5.197-21.05 0-2.24-.435-13.305-1.007-24.215-.01-.208.115-.398.309-.472l11.79-4.535c-.826-2.82-5.913-19.327-14.23-25.984-.615-.494-1.292-.906-2.014-1.224l-.09-.054c-1.615-1.197-4.063-2.104-7.936-2.939-5.487-1.188-17.232-.2-17.332-.19-.1.009-7.482 1.043-9.976 2.458-.055.034-.117.056-.181.063l-1.315.154-1.252.145c-11.255 4.336-13.477 29.585-13.713 32.696l12.57 6.348c.481-1.959 2.005-8.353 1.987-10.738-.003-.235.167-.436.399-.472l.081-.045z"/>
                <path fill="#7E7E8C" fill-rule="nonzero" d="M187.129 171.194c-2.812-8.78-5.37-13.604-6.83-15.908-.646-1.04-1.468-1.961-2.43-2.72l-1.877-1.47-2.82.907c2.088.717 3.898 2.075 5.169 3.882 1.288 1.959 4 6.766 6.992 16.18 3.791 11.917 8.825 33.856 11.382 70.85l-18.365-.59.172 1.996 20.325.662-.073-1.098c-2.558-38.01-7.745-60.538-11.645-72.691z"/>
                <path fill="#3B3C40" fill-rule="nonzero" d="M198.847 245.5l-20.334-.626c-.242-.008-.44-.195-.463-.436l-.172-1.995c-.015-.136.032-.273.127-.372.093-.1.225-.157.363-.154l17.83.58c-2.566-36.676-7.564-58.415-11.318-70.215-2.957-9.305-5.614-14.057-6.938-16.062-1.201-1.707-2.908-2.995-4.88-3.682l.118-.444-.163-.472 2.83-.907c.15-.047.312-.016.435.082l1.877 1.46c1.003.79 1.865 1.743 2.549 2.82 1.614 2.567 4.126 7.429 6.883 16.017 3.9 12.18 9.07 34.7 11.664 72.846l.072 1.097c.008.135-.042.266-.136.363-.096.08-.22.116-.344.1zm-19.88-1.597l19.372.626v-.571c-2.558-38.046-7.736-60.493-11.627-72.619-2.866-8.942-5.442-13.74-6.775-15.799-.624-.986-1.412-1.857-2.33-2.575l-1.66-1.306-1.352.435c1.657.835 3.09 2.054 4.181 3.555 1.36 2.068 4.063 6.91 7.056 16.325 3.791 11.899 8.843 33.874 11.4 70.959.01.133-.036.265-.127.363-.096.095-.227.147-.362.145l-17.822-.58.045 1.042z"/>
                <path fill="#7E7E8C" fill-rule="nonzero" d="M192.199 266.314l-37.566-2.648c-1.524-.11-2.928-.867-3.856-2.081-.928-1.215-1.29-2.768-.996-4.268l5.306-26.201c.535-2.66 2.984-4.492 5.686-4.254l34.12 3.002c2.896.255 5.052 2.786 4.842 5.686l-1.813 25.83c-.1 1.415-.76 2.732-1.835 3.658-1.074.927-2.474 1.386-3.888 1.276z"/>
                <path fill="#3B3C40" fill-rule="nonzero" d="M192.57 266.804h-.408l-37.565-2.658c-1.663-.118-3.194-.946-4.204-2.272-1.01-1.326-1.402-3.022-1.074-4.657l5.269-26.183c.584-2.896 3.25-4.891 6.194-4.635l34.12 3.002c3.148.284 5.493 3.032 5.278 6.186l-1.814 25.838c-.224 3.035-2.753 5.382-5.795 5.379zm-.344-.962c1.29.092 2.562-.335 3.535-1.187.973-.852 1.565-2.057 1.644-3.347l1.813-25.83c.174-2.636-1.786-4.93-4.416-5.17l-34.12-3.002c-2.463-.228-4.7 1.445-5.178 3.873l-5.27 26.174c-.274 1.366.052 2.784.896 3.893.843 1.11 2.123 1.802 3.512 1.903l37.584 2.693z"/>
                <path fill="#E8987D" fill-rule="nonzero" d="M203.254 230.145c-.276.754-.92 1.312-1.705 1.478-.452.936-1.155 1.727-2.031 2.286-.446.889-1.246 1.548-2.204 1.814h-4.444l-.78-.844c-.149-.154-.306-.299-.472-.435-.976-.633-1.848-1.413-2.584-2.313-.817-1.106-3.12-4.96-3.628-5.795-.816-.644-3.546-2.948-7.056-5.95-8.915-7.636-22.8-19.825-22.937-21.394-.09-.907.907-6.086 2.404-12.407l10.511 5.287c-.136.717-.245 1.415-.326 2.077-.209 1.76 4.652 7.428 10.275 13.133 5.832 5.913 12.489 11.862 15.155 13.513 2.648 1.116 6.739 2.911 7.4 3.628l.264.308c.498.816.909 1.682 1.224 2.585.145.254 1.215 2.34.934 3.03z"/>
                <path fill="#3B3C40" fill-rule="nonzero" d="M192.87 236.23c-.127 0-.248-.053-.336-.144l-.907-.907c-.083-.098-.17-.192-.263-.282l-.362-.263c-.902-.593-1.699-1.331-2.358-2.185-.862-1.152-3.238-5.152-3.628-5.75-.907-.735-3.628-3.03-7.002-5.914-10.448-8.96-22.945-19.952-23.09-21.694-.11-1.124 1.133-7.11 2.412-12.552.036-.134.129-.247.254-.308.123-.059.267-.059.39 0l10.511 5.288c.182.09.282.29.245.49-.136.698-.245 1.387-.326 2.049-.118 1.007 2.467 4.96 10.148 12.752 5.86 5.94 12.48 11.844 15.074 13.44 4.39 1.814 6.938 3.102 7.491 3.692.107.114.207.235.3.362.422.585.747 1.234.96 1.923.08.237.177.467.29.69 0 0 1.352 2.448.908 3.391-.323.805-.988 1.423-1.814 1.687-.462.903-1.15 1.671-1.995 2.231-.51.956-1.393 1.656-2.44 1.932h-.09c-1.434.055-2.921.073-4.372.073zm-34.727-48.92c-1.56 6.684-2.33 11.002-2.267 11.7.28 1.188 9.223 9.46 22.782 21.086 3.456 2.948 6.222 5.288 7.047 5.94.043.036.08.08.109.128.907 1.569 2.884 4.797 3.582 5.75.594.752 1.304 1.404 2.104 1.931l.4.29.39.354.78.835h4.18c.794-.254 1.449-.821 1.814-1.57.046-.1.127-.18.227-.226.777-.516 1.403-1.23 1.814-2.068.065-.133.19-.228.335-.254.63-.144 1.142-.598 1.36-1.206-.126-.908-.435-1.78-.906-2.567-.145-.273-.267-.558-.363-.852-.187-.603-.468-1.173-.834-1.687-.074-.1-.152-.198-.236-.29-.444-.472-3.156-1.814-7.256-3.501-2.72-1.669-9.395-7.627-15.3-13.604-4.888-4.961-10.656-11.337-10.402-13.505.072-.58.163-1.17.272-1.813l-9.632-4.87zM180.282 238.416l-9.179-.798c-.242-.047-.409-.271-.385-.517.023-.246.229-.434.476-.435l9.124.807c.238.033.415.236.415.476s-.177.444-.415.476l-.036-.009z"/>
                <path fill="#E8987D" fill-rule="nonzero" d="M198.085 151.405c-.118-.907-.218-1.479-.218-1.479s-2.04-7.527-1.433-11.291c.608-3.764-8.507-3.5-8.507-3.5l-3.455 15.018s.217.48.598 1.252h13.015z"/>
                <path fill="#3B3C40" fill-rule="nonzero" d="M198.085 151.858H185.07c-.173 0-.332-.098-.408-.254-.38-.78-.608-1.26-.608-1.26-.026-.095-.026-.196 0-.29l3.456-15.02c.043-.206.225-.354.435-.353.263 0 6.476-.164 8.408 2.04.483.54.69 1.273.562 1.986-.59 3.628 1.397 11.029 1.424 11.101.027.073.1.626.217 1.542.02.128-.02.259-.108.354-.09.106-.225.163-.363.154zm-12.697-.907h12.207c-.082-.59-.136-.907-.136-.952-.073-.263-2.059-7.618-1.433-11.437.09-.447-.041-.91-.354-1.242-1.278-1.47-5.441-1.732-7.346-1.742l-3.347 14.512.409.861zM193.967 158.252h2.975c3.855 16.09 13.423 38.572 13.922 52.965-1.052 2.222-2.259 2.975-3.138 5.27-1.814-.907-3.474-2.322-5.243-3.392 2.485-16.461-6.81-35.335-8.516-54.843z"/>
                <path fill="#3B3C40" fill-rule="nonzero" d="M197.922 152.538L196.833 158.705 193.94 159.358 190.965 152.62 194.43 151.35z"/>
                <path fill="#3B3C40" fill-rule="nonzero" d="M193.94 159.83c-.187-.003-.356-.112-.435-.281l-2.975-6.73c-.055-.12-.055-.26 0-.38.05-.122.15-.217.272-.264l3.465-1.27c.101-.04.215-.04.317 0l3.492 1.189c.222.076.357.303.317.535l-1.088 6.167c-.037.187-.178.335-.363.381l-2.893.653h-.109zm-2.33-6.938l2.611 5.913 2.195-.499.961-5.441-2.938-.998-2.83 1.025z"/>
                <path fill="#E5E9F4" fill-rule="nonzero" d="M202.547 151.949l-3.41-4.036c-1.284 2.096-3.79 3.102-6.167 2.476-3.133-.859-6.213-1.9-9.224-3.12l-2.358 3.464 6.54 7.818 5.722-6.611 8.443 6.394.454-6.385z"/>
                <path fill="#3B3C40" fill-rule="nonzero" d="M187.954 159.032c-.14-.002-.273-.065-.363-.172l-6.539-7.818c-.125-.17-.125-.402 0-.572l2.34-3.473c.128-.183.364-.255.572-.172 2.992 1.208 6.05 2.247 9.16 3.11 2.17.563 4.452-.353 5.632-2.258.075-.137.215-.227.372-.236.155-.021.31.04.408.163l3.41 4.036c.083.095.125.22.118.345l-.435 6.349c-.01.178-.118.336-.282.408-.157.073-.343.052-.48-.055l-8.09-6.122-5.442 6.276c-.09.12-.231.19-.38.19zm-5.95-8.326l5.95 7.11 5.36-6.185c.167-.188.45-.22.653-.072l7.736 5.859.354-5.306-2.893-3.374c-1.466 1.964-3.99 2.822-6.349 2.159-3.032-.827-6.015-1.826-8.933-2.993l-1.877 2.802z"/>
                <path fill="#3B3C40" fill-rule="nonzero" d="M197.214 142.217c2.113-3.473-9.26-5.27-9.26-5.27l-.616 1.017c-.01.782.121 1.56.39 2.294 1.102 2.656 2.955 4.931 5.332 6.548 1.237.835 2.649 1.375 4.127 1.578.526-2.13-.844-4.743.027-6.167z"/>
                <path fill="#E8987D" fill-rule="nonzero" d="M194.022 117.14c-.254-.226-8.435 13.985-6.204 19.717 2.231 5.732 9.287 10.185 13.35 8.036 4.49-2.386 10.884-18.62 6.567-25.35-4.317-6.729-13.713-2.403-13.713-2.403z"/>
                <path fill="#3B3C40" fill-rule="nonzero" d="M198.801 145.9c-1.034-.017-2.057-.22-3.02-.6-3.796-1.52-6.82-4.504-8.389-8.28-2.231-5.74 5.396-19.59 6.349-20.242.043-.033.092-.058.145-.073.716-.308 9.885-4.145 14.239 2.594 2.448 3.79 1.396 9.786.553 13.024-1.57 6.022-4.707 11.6-7.256 12.969-.81.416-1.71.625-2.62.607zm-4.534-28.36c-.907 1.106-8.018 13.957-6.004 19.154 1.472 3.537 4.306 6.332 7.863 7.754 1.545.683 3.307.683 4.852 0 2.349-1.242 5.35-6.684 6.838-12.388 1.379-5.26 1.216-9.75-.435-12.308-3.99-6.094-12.543-2.476-13.142-2.213h.028z"/>
                <path fill="#3B3C40" fill-rule="nonzero" d="M197.813 111.925c-2.24-.616-5.605-.634-10.584 3.02-6.122 4.535-6.104 12.262-3.147 17.232 2.956 4.97 1.37 8.707 1.37 8.707l1.468-1.632c1.109-1.266 1.929-2.758 2.404-4.372.307-.983.45-2.009.426-3.038-.145-2.594 3.691-2.72 5.333-4.163 1.27-1.116 2.603-4.29 4.643-6.149l2.032-1.224s3.99-1.098 6.702.77c2.712 1.869 4.861-13.876-10.647-9.15z"/>
                <path fill="#BBC6E3" fill-rule="nonzero" d="M195.355 129.575l-5.913 10.184s2.485 4.472 6.892 6.267c4.408 1.796 6.64-1.605 6.64-1.605s4.362-6.267 5.033-11.137c0 .036-7.265.943-12.652-3.71z"/>
                <path fill="#3B3C40" fill-rule="nonzero" d="M198.801 147.024c-.91-.014-1.81-.205-2.648-.562-4.535-1.814-7.029-6.285-7.129-6.467-.082-.146-.082-.325 0-.471l5.968-10.185c.067-.126.188-.213.327-.238.14-.025.284.016.39.11 5.16 4.472 12.207 3.629 12.28 3.629.146-.018.293.032.399.136.105.104.156.252.136.399-.68 4.933-4.934 11.082-5.115 11.345-1.09 1.448-2.796 2.301-4.608 2.304zm-8.806-7.255c.571.906 2.884 4.344 6.52 5.822 3.973 1.614 5.978-1.297 6.06-1.424.08-.127 3.962-5.732 4.86-10.339-1.859.127-7.41.118-11.953-3.519l-5.487 9.46z"/>
                <path fill="#3B3C40" fill-rule="nonzero" d="M195.455 129.883c.057-.131.137-.25.235-.354v-.38l-2.158-2.613-.426.58 1.986 3.628c.1-.272.236-.562.363-.861zM189.74 139.415c.21-.214.399-.448.563-.699l.064-.136c.011-.031.026-.062.045-.09l-.49-6.349-.335-1.26-.145 8.797.299-.263z"/>
                <path fill="#E8987D" fill-rule="nonzero" d="M190.539 132.885c-1.088-.417-1.388-2.258-.671-4.109.716-1.85 2.177-3.002 3.265-2.584 1.088.417 1.378 2.258.662 4.108"/>
                <path fill="#3B3C40" fill-rule="nonzero" d="M190.539 133.32h-.163c-1.342-.517-1.742-2.585-.907-4.698.328-.908.891-1.712 1.632-2.33.587-.566 1.437-.764 2.213-.518 1.333.526 1.742 2.585.907 4.698-.044.112-.131.202-.242.25-.11.047-.235.049-.347.004-.112-.042-.201-.128-.249-.237-.048-.109-.05-.233-.005-.343.598-1.56.408-3.202-.408-3.519-.476-.108-.974.032-1.324.372-.612.522-1.078 1.194-1.352 1.95-.598 1.56-.417 3.201.408 3.528.113.04.205.125.254.234.05.11.053.234.01.346-.079.164-.246.267-.427.263z"/>
                <path fill="#FFF" fill-rule="nonzero" d="M143.414 355.14c-.677-.003-1.353-.057-2.022-.164-.246-.046-.41-.279-.372-.526.02-.119.087-.224.186-.293.1-.068.222-.093.34-.07 0 0 3.165.536 4.689-.462.1-.067.224-.09.342-.065.118.026.22.098.284.201.136.208.08.487-.127.626-1.017.548-2.165.808-3.32.753zM143.823 357.66c-.418 0-.808 0-1.17-.054-.245-.028-.425-.243-.409-.49.029-.245.243-.428.49-.416 1.223.164 2.468.03 3.628-.39.107-.053.23-.06.343-.022.113.04.205.122.256.23.053.108.06.233.021.347-.039.114-.122.208-.23.26-.927.388-1.926.57-2.93.536zM144.376 360.055h-.381c-.12-.002-.235-.052-.318-.139-.083-.087-.129-.203-.127-.323.015-.25.222-.445.472-.445.82.044 1.64-.045 2.43-.263.251-.075.515.067.59.318.075.25-.067.514-.317.59-.766.202-1.558.29-2.35.262z"/>
                <path fill="#3B3C40" fill-rule="nonzero" d="M226.644 198.53c-.157-.002-.303-.085-.384-.22-.082-.135-.087-.303-.015-.443l6.24-12.026c.07-.154.22-.257.388-.267.17-.01.33.076.416.222.086.146.084.328-.006.471l-6.23 12.017c-.08.151-.238.245-.409.245z"/>
            </g>
        </g>
    </g>
</svg>
